<svg width="128" height="21" viewBox="0 0 128 21" fill="none" xmlns="http://www.w3.org/2000/svg">
<path fill-rule="evenodd" clip-rule="evenodd" d="M0 0.346504H6.60072V15.653H16.9031V20.6535H0V0.346504ZM33.0489 17.3014H25.5294L24.4961 20.6535H17.7494L25.7783 0.346504H32.9759L41.0054 20.6535H34.0982L33.0489 17.3014ZM31.6649 12.9103L29.3041 5.61043L26.9577 12.9103H31.6649ZM43.2058 0.34701H53.0126C54.946 0.34701 56.5074 0.595742 57.6974 1.09473C58.8875 1.59321 59.8712 2.30901 60.6482 3.24164C61.4257 4.17426 61.989 5.25937 62.3386 6.49696C62.6882 7.73404 62.863 9.04508 62.863 10.4306C62.863 12.6008 62.6035 14.2837 62.0839 15.4797C61.5638 16.6753 60.8422 17.6778 59.9202 18.4858C58.9967 19.2938 58.006 19.8318 56.9466 20.0993C55.4997 20.4691 54.1882 20.6535 53.0126 20.6535H43.2058V0.34701ZM49.8065 4.94529V16.041H51.4245C52.8037 16.041 53.7853 15.8951 54.3678 15.6044C54.9508 15.3136 55.407 14.8055 55.7374 14.0805C56.0678 13.3561 56.233 12.1809 56.233 10.5552C56.233 8.40375 55.8637 6.9306 55.1256 6.13678C54.3875 5.34245 53.1634 4.94529 51.4538 4.94529H49.8071H49.8065ZM65.1802 13.9352L71.4606 13.5613C71.597 14.5309 71.8736 15.2695 72.2914 15.7776C72.9714 16.5993 73.9429 17.0106 75.2059 17.0106C76.1481 17.0106 76.874 16.8004 77.3845 16.3799C77.8945 15.96 78.1492 15.4731 78.1492 14.9189C78.1492 14.3921 77.9062 13.921 77.4207 13.5056C76.9347 13.0902 75.8081 12.6981 74.0399 12.3283C71.1451 11.7097 69.0806 10.888 67.8474 9.86271C66.6036 8.83789 65.9822 7.5309 65.9822 5.94275C65.9822 4.89919 66.2998 3.91337 66.9361 2.98531C67.5724 2.05724 68.5295 1.32776 69.8069 0.796858C71.0843 0.265956 72.8355 0 75.0599 0C77.7901 0 79.8711 0.482773 81.3041 1.44782C82.7371 2.41286 83.5893 3.94782 83.8616 6.0537L77.6392 6.39969C77.474 5.48581 77.1266 4.82067 76.5974 4.40527C76.0677 3.98987 75.337 3.78217 74.4044 3.78217C73.637 3.78217 73.0588 3.93668 72.6703 4.24569C72.2813 4.55522 72.0873 4.93161 72.0873 5.37487C72.0873 5.69807 72.2472 5.98885 72.568 6.24721C72.8792 6.5157 73.6178 6.76444 74.7833 6.99544C77.6685 7.58663 79.7352 8.1844 80.9833 8.78926C82.2319 9.39412 83.14 10.1444 83.7086 11.04C84.2767 11.9362 84.5613 12.9382 84.5613 14.0461C84.5613 15.348 84.1819 16.5486 83.4246 17.6479C82.6668 18.7467 81.6073 19.58 80.2479 20.1479C78.8873 20.7158 77.1729 21 75.1036 21C71.4707 21 68.9543 20.3349 67.5554 19.0051C66.1565 17.6753 65.3651 15.9858 65.1802 13.9352ZM87.8542 0.346504H98.827C101.217 0.346504 103.007 0.886522 104.197 1.96758C105.387 3.04762 105.982 4.58511 105.982 6.58004C105.982 8.63019 105.333 10.2325 104.037 11.3865C102.74 12.541 100.76 13.118 98.0985 13.118H94.4842V20.6535H87.8542V0.346504ZM94.4842 9.00405H96.1022C97.3748 9.00405 98.2685 8.79382 98.7828 8.37386C99.2981 7.95339 99.5555 7.4154 99.5555 6.75988C99.5555 6.12259 99.3317 5.58257 98.8851 5.13931C98.4385 4.69605 97.5981 4.47416 96.3644 4.47416H94.4842V9.00405ZM120.044 17.3014H112.525L111.49 20.6535H104.743L112.772 0.346504H119.971L128 20.6535H121.093L120.044 17.3014ZM118.66 12.9103L116.299 5.61043L113.953 12.9103H118.66Z" fill="#9A9A9A"/>
</svg>
