<svg width="103" height="103" viewBox="0 0 103 103" fill="none" xmlns="http://www.w3.org/2000/svg">
<path d="M21.5453 64.6673C21.5453 66.7913 20.9156 68.8677 19.7356 70.6338C18.5556 72.3999 16.8784 73.7764 14.9161 74.5893C12.9537 75.4021 10.7944 75.6148 8.71124 75.2005C6.62803 74.7861 4.71447 73.7633 3.21257 72.2614C1.71066 70.7595 0.687856 68.8459 0.273501 66.7627C-0.140854 64.6795 0.0718504 62.5202 0.884716 60.5579C1.69758 58.5956 3.0741 56.9184 4.84019 55.7384C6.60628 54.5584 8.68262 53.9286 10.8066 53.9287H21.5453V64.6673Z" fill="#9A9A9A"/>
<path d="M26.9566 64.6675C26.9745 61.8311 28.1137 59.117 30.1257 57.1176C32.1377 55.1183 34.859 53.9961 37.6954 53.9961C40.5319 53.9961 43.2531 55.1183 45.2651 57.1176C47.2771 59.117 48.4164 61.8311 48.4343 64.6675V91.5564C48.4432 92.9724 48.172 94.3761 47.6363 95.6868C47.1006 96.9975 46.311 98.1894 45.313 99.1937C44.3149 100.198 43.128 100.995 41.8207 101.539C40.5134 102.083 39.1114 102.363 37.6954 102.363C36.2795 102.363 34.8775 102.083 33.5702 101.539C32.2628 100.995 31.076 100.198 30.0779 99.1937C29.0798 98.1894 28.2902 96.9975 27.7545 95.6868C27.2189 94.3761 26.9477 92.9724 26.9566 91.5564V64.6675Z" fill="#9A9A9A"/>
<path d="M37.6955 21.5455C35.5715 21.5456 33.4952 20.9158 31.7291 19.7358C29.963 18.5558 28.5865 16.8786 27.7736 14.9163C26.9607 12.954 26.748 10.7947 27.1624 8.71145C27.5767 6.62824 28.5995 4.71469 30.1015 3.21278C31.6034 1.71087 33.5169 0.688069 35.6001 0.273715C37.6833 -0.14064 39.8426 0.072064 41.805 0.884929C43.7673 1.69779 45.4445 3.07431 46.6245 4.8404C47.8045 6.60649 48.4342 8.68284 48.4341 10.8069V21.5455H37.6955Z" fill="#9A9A9A"/>
<path d="M37.6956 26.9568C40.532 26.9746 43.2461 28.1139 45.2455 30.1259C47.2448 32.1379 48.367 34.8591 48.367 37.6956C48.367 40.532 47.2448 43.2533 45.2455 45.2653C43.2461 47.2773 40.532 48.4165 37.6956 48.4344H10.8067C9.39074 48.4433 7.98702 48.1721 6.6763 47.6365C5.36557 47.1008 4.17373 46.3112 3.16934 45.3131C2.16496 44.315 1.36787 43.1282 0.823945 41.8209C0.28002 40.5135 0 39.1115 0 37.6956C0 36.2796 0.28002 34.8776 0.823945 33.5703C1.36787 32.263 2.16496 31.0761 3.16934 30.0781C4.17373 29.08 5.36557 28.2904 6.6763 27.7547C7.98702 27.219 9.39074 26.9478 10.8067 26.9568H37.6956Z" fill="#9A9A9A"/>
<path d="M80.8178 37.696C80.8177 35.572 81.4475 33.4957 82.6275 31.7296C83.8075 29.9635 85.4847 28.587 87.447 27.7741C89.4093 26.9612 91.5686 26.7485 93.6518 27.1629C95.7351 27.5772 97.6486 28.6 99.1505 30.1019C100.652 31.6038 101.675 33.5174 102.09 35.6006C102.504 37.6838 102.291 39.8431 101.478 41.8054C100.666 43.7678 99.289 45.445 97.5229 46.625C95.7568 47.8049 93.6805 48.4347 91.5564 48.4346H80.8178V37.696Z" fill="#9A9A9A"/>
<path d="M75.4066 37.6956C75.3888 40.532 74.2495 43.2461 72.2375 45.2455C70.2255 47.2448 67.5043 48.367 64.6678 48.367C61.8314 48.367 59.1101 47.2448 57.0981 45.2455C55.0861 43.2461 53.9468 40.532 53.929 37.6956V10.8067C53.9201 9.39074 54.1913 7.98702 54.7269 6.6763C55.2626 5.36557 56.0522 4.17373 57.0503 3.16934C58.0484 2.16496 59.2352 1.36787 60.5425 0.823945C61.8499 0.28002 63.2518 0 64.6678 0C66.0838 0 67.4858 0.28002 68.7931 0.823945C70.1004 1.36787 71.2873 2.16496 72.2853 3.16934C73.2834 4.17373 74.073 5.36557 74.6087 6.6763C75.1444 7.98702 75.4156 9.39074 75.4066 10.8067V37.6956Z" fill="#9A9A9A"/>
<path d="M64.6676 80.8179C66.7916 80.8178 68.8679 81.4476 70.634 82.6275C72.4001 83.8075 73.7766 85.4847 74.5895 87.4471C75.4023 89.4094 75.615 91.5687 75.2007 93.6519C74.7863 95.7351 73.7635 97.6487 72.2616 99.1506C70.7597 100.652 68.8462 101.675 66.763 102.09C64.6797 102.504 62.5204 102.291 60.5581 101.478C58.5958 100.666 56.9186 99.289 55.7386 97.5229C54.5586 95.7568 53.9289 93.6805 53.9289 91.5565V80.8179H64.6676Z" fill="#9A9A9A"/>
<path d="M64.6675 75.4066C61.8311 75.3887 59.117 74.2494 57.1176 72.2375C55.1183 70.2255 53.9961 67.5042 53.9961 64.6677C53.9961 61.8313 55.1183 59.11 57.1176 57.0981C59.117 55.0861 61.8311 53.9468 64.6675 53.9289H91.5564C92.9724 53.92 94.3761 54.1912 95.6868 54.7269C96.9975 55.2626 98.1894 56.0521 99.1938 57.0502C100.198 58.0483 100.995 59.2352 101.539 60.5425C102.083 61.8498 102.363 63.2518 102.363 64.6677C102.363 66.0837 102.083 67.4857 101.539 68.793C100.995 70.1003 100.198 71.2872 99.1938 72.2853C98.1894 73.2834 96.9975 74.073 95.6868 74.6086C94.3761 75.1443 92.9724 75.4155 91.5564 75.4066H64.6675Z" fill="#9A9A9A"/>
</svg>
