<svg width="137" height="56" viewBox="0 0 137 56" fill="none" xmlns="http://www.w3.org/2000/svg">
<path d="M136.997 29.4479V16.7076C136.997 5.92656 126.372 0.0460211 117.679 0.0460211C111.631 0.525975 105.886 2.92638 101.259 6.90658C99.2649 4.77353 96.87 3.06747 94.2155 1.88914C91.5611 0.710813 88.7009 0.0841067 85.8037 0.0460211C79.6957 0.256111 73.8666 2.69161 69.3838 6.90658C67.7502 4.59954 65.5599 2.75702 63.0229 1.55569C60.486 0.35437 57.6873 -0.165467 54.8955 0.0460211C52.0127 -0.180005 49.1273 0.447208 46.5888 1.85165C44.0502 3.2561 41.9677 5.37748 40.5934 7.95871L27.8518 37.2889L13.7039 4.38746C12.9476 2.6329 11.5382 1.25294 9.78324 0.548531C8.02823 -0.155874 6.06992 -0.127578 4.3354 0.627253C3.45708 1.00885 2.66305 1.56521 2.00023 2.26346C1.3374 2.9617 0.819231 3.78767 0.476325 4.69256C0.133419 5.59745 -0.0272629 6.56289 0.00377324 7.53186C0.0348093 8.50082 0.256934 9.45365 0.657023 10.334L18.1944 49.0499C18.1944 49.0499 21.0923 55.9105 26.8873 55.9105C28.6658 56.1778 30.4815 55.8425 32.0532 54.9565C33.6248 54.0706 34.8647 52.6834 35.5806 51.01C36.918 48.9739 47.058 27.3349 53.1667 14.2194C53.4031 13.7127 53.8025 13.3028 54.2991 13.0572C54.7957 12.8116 55.3599 12.7449 55.8989 12.8682C56.4378 12.9915 56.9193 13.2973 57.264 13.7353C57.6088 14.1733 57.7962 14.7174 57.7955 15.278V47.801C57.7699 49.8245 58.499 51.7829 59.8367 53.2838C61.1744 54.7846 63.0218 55.7168 65.0084 55.8936C66.0642 55.9649 67.1231 55.8156 68.1196 55.4547C69.1162 55.0938 70.029 54.5292 70.8017 53.7957C71.5744 53.0622 72.1904 52.1756 72.6115 51.1906C73.0327 50.2057 73.25 49.1436 73.2501 48.0699V21.1177C73.2501 18.9083 74.1151 16.7894 75.6547 15.2271C77.1944 13.6648 79.2827 12.7871 81.4601 12.7871C83.6375 12.7871 85.7257 13.6648 87.2654 15.2271C88.8051 16.7894 89.6701 18.9083 89.6701 21.1177V48.0699C89.6701 50.1495 90.4842 52.1439 91.9334 53.6144C93.3826 55.0848 95.3481 55.9109 97.3976 55.9109C99.447 55.9109 101.413 55.0848 102.862 53.6144C104.311 52.1439 105.125 50.1495 105.125 48.0699V21.1177C105.125 18.9083 105.99 16.7894 107.53 15.2271C109.069 13.6648 111.158 12.7871 113.335 12.7871C115.512 12.7871 117.601 13.6648 119.14 15.2271C120.68 16.7894 121.545 18.9083 121.545 21.1177V48.0699C121.545 50.1495 122.359 52.1439 123.808 53.6144C125.258 55.0848 127.223 55.9109 129.273 55.9109C131.322 55.9109 133.287 55.0848 134.737 53.6144C136.186 52.1439 137 50.1495 137 48.0699L136.997 29.4479Z" fill="#9A9A9A"/>
</svg>
