<svg width="93" height="99" viewBox="0 0 93 99" fill="none" xmlns="http://www.w3.org/2000/svg">
<path d="M92.431 55.4119C92.431 63.5049 92.431 71.172 92.431 79.265C92.431 82.2467 91.1532 84.3764 89.4494 86.5062C85.6158 90.7657 80.5044 91.1916 75.393 89.0619C74.1152 88.6359 72.8373 87.784 71.5595 86.9321C70.2816 86.0802 69.8557 84.3764 70.7076 83.0986C71.5595 81.8207 73.2633 81.3948 74.5411 82.2467C76.2449 83.0986 77.9487 83.9505 80.0785 83.9505C82.6342 83.9505 85.6158 82.2467 86.0418 79.691C86.0418 79.265 86.4677 78.8391 86.4677 78.4131C86.4677 69.4682 86.4677 60.9492 86.4677 52.4302C86.4677 46.041 86.4677 39.2258 86.4677 32.8365C86.4677 30.2808 85.1899 28.577 82.6342 27.7251C63.8924 21.3359 44.7247 15.3726 25.9829 9.4093C22.5753 8.5574 19.5936 7.7055 16.186 6.42765C15.3341 6.42765 14.9082 6.0017 14.0563 6.0017C11.0746 5.57575 8.51893 7.7055 8.51893 11.1131C8.51893 21.7618 8.51893 32.4106 8.51893 43.0593C8.51893 43.4853 8.51893 43.9112 8.09298 44.3372C6.38918 46.4669 3.40753 46.4669 2.12968 44.3372C1.70373 43.9112 1.70374 43.9112 1.70374 43.4853C1.70374 32.4106 1.70374 20.9099 1.70374 9.83525C1.70374 5.57575 5.11133 1.31626 10.2227 0.464358C11.9265 -0.387542 14.0563 0.0384076 15.7601 0.890307C18.3158 1.74221 20.8715 2.59411 23.8531 3.44601C35.7797 6.8536 48.1322 10.6871 60.0588 14.0947C68.5778 16.6504 77.0968 19.2061 85.6158 21.7618C88.1715 22.6137 89.8753 24.3175 91.1532 26.8732C92.0051 29.003 92.0051 31.1327 92.0051 32.8365C92.0051 33.2625 92.0051 33.2625 92.0051 33.6884C92.431 40.5036 92.431 47.7448 92.431 55.4119Z" fill="#9A9A9A"/>
<path d="M52.392 65.2088C52.392 55.4119 52.392 45.6151 52.392 35.3923C52.392 32.8366 54.0958 31.1328 56.6515 31.1328C58.3553 31.1328 59.6331 31.1328 61.3369 31.1328C63.8926 31.1328 65.1705 32.8366 65.1705 34.9664C65.1705 54.986 65.1705 74.5797 65.1705 94.5993C65.1705 97.155 63.4667 98.4329 61.3369 98.4329C59.6331 98.4329 58.3553 98.4329 56.6515 98.4329C54.0958 98.4329 52.8179 96.7291 52.8179 94.5993C52.392 84.8025 52.392 75.0056 52.392 65.2088Z" fill="#9A9A9A"/>
<path d="M34.502 66.9131C34.502 59.672 34.502 52.4308 34.502 45.1897C34.502 42.634 36.2058 40.9302 38.7614 40.9302C40.0393 40.9302 41.3171 40.9302 42.595 40.9302C44.7247 40.9302 46.4285 42.634 46.4285 44.7637C46.4285 55.4125 46.4285 65.6352 46.4285 76.284C46.4285 80.1175 46.4285 84.377 46.4285 88.2106C46.4285 90.7663 44.7247 92.4701 42.169 92.4701C40.8912 92.4701 39.6133 92.4701 38.3355 92.4701C36.2058 92.4701 34.502 90.7663 34.502 88.6365C34.502 81.3954 34.502 74.1542 34.502 66.9131Z" fill="#9A9A9A"/>
<path d="M28.9648 66.4869C28.9648 72.0243 28.9648 77.5616 28.9648 83.099C28.9648 85.6547 27.261 87.3585 24.7053 87.3585C23.4274 87.3585 22.1496 87.3585 21.2977 87.3585C19.1679 87.3585 17.4641 85.6547 17.4641 83.5249C17.4641 83.099 17.4641 82.673 17.4641 81.8211C17.4641 71.1724 17.4641 60.9496 17.4641 50.3008C17.4641 48.1711 18.742 46.8932 20.4458 46.4673C20.8717 46.4673 21.2977 46.4673 21.7236 46.4673C23.0015 46.4673 24.2793 46.4673 25.5572 46.4673C28.1129 46.4673 29.3907 48.1711 29.3907 50.3008C28.9648 55.4122 28.9648 60.9496 28.9648 66.4869Z" fill="#9A9A9A"/>
<path d="M11.5008 66.4867C11.5008 69.8943 11.5008 73.7278 11.5008 77.1354C11.5008 79.2652 9.79697 80.969 7.66722 80.969C6.38937 80.969 5.11152 80.969 3.83367 80.969C1.70392 80.969 0.00012207 79.2652 0.00012207 77.1354C0.00012207 69.8943 0.00012207 62.6531 0.00012207 55.8379C0.00012207 53.7082 1.70392 52.0044 3.83367 52.0044C5.11152 52.0044 6.38937 52.0044 8.09317 52.0044C10.2229 52.0044 11.9267 53.7082 11.9267 55.8379C11.0748 59.2455 11.0748 63.0791 11.5008 66.4867Z" fill="#9A9A9A"/>
</svg>
