<svg width="59" height="59" viewBox="0 0 59 59" fill="none" xmlns="http://www.w3.org/2000/svg">
<path fill-rule="evenodd" clip-rule="evenodd" d="M4.75736 5.24264C7.10051 2.89949 10.9554 2.95536 13.3674 5.36742L54.1301 46.1301C56.5421 48.5421 56.598 52.397 54.2548 54.7401C51.9117 57.0833 48.0568 57.0274 45.6448 54.6153L4.88214 13.8527C2.47008 11.4406 2.41421 7.58579 4.75736 5.24264Z" fill="black"/>
<path fill-rule="evenodd" clip-rule="evenodd" d="M54.7574 4.75736C57.1005 7.10051 57.0446 10.9554 54.6326 13.3674L13.8699 54.1301C11.4579 56.5421 7.60303 56.598 5.25988 54.2548C2.91674 51.9117 2.97261 48.0568 5.38467 45.6448L46.1473 4.88214C48.5594 2.47008 52.4142 2.41421 54.7574 4.75736Z" fill="black"/>
</svg>
