<svg width="16" height="16" viewBox="0 0 16 16" fill="none" xmlns="http://www.w3.org/2000/svg">
<path fill-rule="evenodd" clip-rule="evenodd" d="M1.93934 1.93934C2.52513 1.35355 3.47487 1.35355 4.06066 1.93934L14.0713 11.95C14.6571 12.5358 14.6571 13.4855 14.0713 14.0713C13.4855 14.6571 12.5358 14.6571 11.95 14.0713L1.93934 4.06066C1.35355 3.47487 1.35355 2.52512 1.93934 1.93934Z" fill="#8C8C8C"/>
<path fill-rule="evenodd" clip-rule="evenodd" d="M14.0607 1.93934C14.6465 2.52513 14.6465 3.47487 14.0607 4.06066L4.05001 14.0713C3.46423 14.6571 2.51448 14.6571 1.92869 14.0713C1.34291 13.4855 1.34291 12.5358 1.92869 11.95L11.9394 1.93934C12.5251 1.35355 13.4749 1.35355 14.0607 1.93934Z" fill="#8C8C8C"/>
</svg>
