<svg width="46" height="36" viewBox="0 0 46 36" fill="none" xmlns="http://www.w3.org/2000/svg">
<path fill-rule="evenodd" clip-rule="evenodd" d="M18.0303 0.655949C18.9707 1.56509 19.0108 3.08004 18.1199 4.03969L5.57571 17.5526L18.1199 31.0656C19.0108 32.0252 18.9707 33.5402 18.0303 34.4493C17.09 35.3585 15.6055 35.3175 14.7146 34.3579L0.642287 19.1988C-0.214713 18.2756 -0.214713 16.8297 0.642288 15.9065L14.7147 0.747401C15.6055 -0.212247 17.09 -0.253192 18.0303 0.655949Z" fill="black"/>
<path fill-rule="evenodd" clip-rule="evenodd" d="M46.0001 17.5526C46.0001 18.8898 44.9432 19.9737 43.6395 19.9737L16.8869 19.9737C15.5832 19.9737 14.5264 18.8898 14.5264 17.5526C14.5264 16.2155 15.5832 15.1316 16.8869 15.1316L43.6395 15.1316C44.9432 15.1316 46.0001 16.2155 46.0001 17.5526Z" fill="black"/>
</svg>
