<svg width="20" height="19" viewBox="0 0 20 19" fill="none" xmlns="http://www.w3.org/2000/svg">
<path d="M1.42857 7.14283H18.5714V5.71426C18.5714 5.33538 18.4209 4.97202 18.153 4.70411C17.8851 4.4362 17.5217 4.28569 17.1429 4.28569H2.85714C2.47826 4.28569 2.1149 4.4362 1.84699 4.70411C1.57908 4.97202 1.42857 5.33538 1.42857 5.71426V7.14283ZM1.42857 8.5714V15.7143C1.42857 16.0931 1.57908 16.4565 1.84699 16.7244C2.1149 16.9923 2.47826 17.1428 2.85714 17.1428H17.1429C17.5217 17.1428 17.8851 16.9923 18.153 16.7244C18.4209 16.4565 18.5714 16.0931 18.5714 15.7143V8.5714H1.42857ZM2.85714 2.85712H17.1429C17.9006 2.85712 18.6273 3.15814 19.1632 3.69395C19.699 4.22977 20 4.9565 20 5.71426V15.7143C20 16.472 19.699 17.1987 19.1632 17.7346C18.6273 18.2704 17.9006 18.5714 17.1429 18.5714H2.85714C2.09938 18.5714 1.37266 18.2704 0.836838 17.7346C0.30102 17.1987 0 16.472 0 15.7143V5.71426C0 4.9565 0.30102 4.22977 0.836838 3.69395C1.37266 3.15814 2.09938 2.85712 2.85714 2.85712Z" fill="#8C8C8C"/>
<path d="M7.14268 1.42857V2.85714H12.857V1.42857H7.14268ZM7.14268 0H12.857C13.2358 0 13.5992 0.15051 13.8671 0.418419C14.135 0.686328 14.2855 1.04969 14.2855 1.42857V2.85714C14.2855 3.23602 14.135 3.59939 13.8671 3.8673C13.5992 4.1352 13.2358 4.28571 12.857 4.28571H7.14268C6.7638 4.28571 6.40044 4.1352 6.13253 3.8673C5.86462 3.59939 5.71411 3.23602 5.71411 2.85714V1.42857C5.71411 1.04969 5.86462 0.686328 6.13253 0.418419C6.40044 0.15051 6.7638 0 7.14268 0Z" fill="#8C8C8C"/>
</svg>
