<svg width="16" height="21" viewBox="0 0 16 21" fill="none" xmlns="http://www.w3.org/2000/svg">
<path d="M8.076 0C3.70333 0 0 3.66658 0 8.00912C0 12.5571 4.29267 17.2081 7.18 20.477C7.19133 20.4901 7.658 21 8.23267 21H8.28333C8.85867 21 9.322 20.4901 9.33333 20.477C12.0427 17.4109 16 12.3543 16 8.00912C16 3.66593 13.1113 0 8.076 0ZM8.34333 19.5962C8.32 19.6192 8.286 19.6448 8.256 19.6665C8.22533 19.6455 8.192 19.6192 8.16733 19.5962L7.81867 19.2012C5.08133 16.1101 1.33267 11.8765 1.33267 8.00847C1.33267 4.37798 4.42067 1.31123 8.07533 1.31123C12.628 1.31123 14.666 4.67461 14.666 8.00847C14.666 10.9446 12.5387 14.8442 8.34333 19.5962ZM8.02333 3.97372C5.81467 3.97372 4.02333 5.73646 4.02333 7.91134C4.02333 10.0862 5.81467 11.849 8.02333 11.849C10.232 11.849 12.0233 10.0856 12.0233 7.91134C12.0233 5.73712 10.2327 3.97372 8.02333 3.97372ZM8.02333 10.5364C6.55267 10.5364 5.326 9.3302 5.326 7.88246C5.326 6.43473 6.522 5.25738 7.99267 5.25738C9.464 5.25738 10.6593 6.43473 10.6593 7.88246C10.66 9.3302 9.49467 10.5364 8.02333 10.5364Z" fill="#9A9A9A"/>
</svg>
