<svg width="70" height="55" viewBox="0 0 70 55" fill="none" xmlns="http://www.w3.org/2000/svg">
<path fill-rule="evenodd" clip-rule="evenodd" d="M24.8276 6.15672C24.8276 2.75646 27.5293 0 30.8621 0H63.9655C67.2983 0 70 2.75646 70 6.15672C70 9.55698 67.2983 12.3134 63.9655 12.3134H30.8621C27.5293 12.3134 24.8276 9.55698 24.8276 6.15672ZM0 27.5C0 24.0997 2.70173 21.3433 6.03448 21.3433H63.9655C67.2983 21.3433 70 24.0997 70 27.5C70 30.9003 67.2983 33.6567 63.9655 33.6567H6.03448C2.70173 33.6567 0 30.9003 0 27.5ZM24.8276 48.8433C24.8276 45.443 27.5293 42.6866 30.8621 42.6866H63.9655C67.2983 42.6866 70 45.443 70 48.8433C70 52.2435 67.2983 55 63.9655 55H30.8621C27.5293 55 24.8276 52.2435 24.8276 48.8433Z" fill="black"/>
</svg>
