<svg width="118" height="96" viewBox="0 0 118 96" fill="none" xmlns="http://www.w3.org/2000/svg">
<path d="M0 96V63.8824C0 51.8824 2.11343 40.8235 6.3403 30.7059C10.5672 20.5882 17.7294 10.3529 27.8269 0L46.1433 14.4706C40.2726 20.353 35.8109 25.8824 32.7582 31.0588C29.7055 36.2353 27.7095 41.5294 26.7702 46.9412H49.3134V96H0ZM68.6866 96V63.8824C68.6866 51.8824 70.8 40.8235 75.0269 30.7059C79.2537 20.5882 86.4159 10.3529 96.5134 0L114.83 14.4706C108.959 20.353 104.498 25.8824 101.445 31.0588C98.392 36.2353 96.396 41.5294 95.4567 46.9412H118V96H68.6866Z" fill="#8C8C8C" fill-opacity="0.19"/>
</svg>
