<svg width="34" height="41" viewBox="0 0 34 41" fill="none" xmlns="http://www.w3.org/2000/svg">
<path d="M32.1111 3.72727C32.6121 3.72727 33.0925 3.53093 33.4468 3.18143C33.801 2.83193 34 2.3579 34 1.86364C34 1.36937 33.801 0.895346 33.4468 0.545846C33.0925 0.196347 32.6121 0 32.1111 0H1.88889C1.38792 0 0.907478 0.196347 0.553243 0.545846C0.199007 0.895346 0 1.36937 0 1.86364C0 2.3579 0.199007 2.83193 0.553243 3.18143C0.907478 3.53093 1.38792 3.72727 1.88889 3.72727H3.87033C4.14611 7.14891 5.27378 14.4432 9.90344 18.6364C5.02067 23.316 4.02711 33.0497 3.82878 37.2727H1.88889C1.38792 37.2727 0.907478 37.4691 0.553243 37.8186C0.199007 38.1681 0 38.6421 0 39.1364C0 39.6306 0.199007 40.1047 0.553243 40.4542C0.907478 40.8037 1.38792 41 1.88889 41H32.1111C32.6121 41 33.0925 40.8037 33.4468 40.4542C33.801 40.1047 34 39.6306 34 39.1364C34 38.6421 33.801 38.1681 33.4468 37.8186C33.0925 37.4691 32.6121 37.2727 32.1111 37.2727H30.1712C29.9729 33.0535 28.9793 23.3197 24.0966 18.6364C28.7262 14.4395 29.8539 7.14518 30.1297 3.72727H32.1111ZM19.9844 17.0075C19.6844 17.172 19.4354 17.414 19.2642 17.7075C19.0931 18.0011 19.0062 18.3351 19.013 18.6737C19.0198 19.0123 19.12 19.3427 19.3028 19.6293C19.4856 19.9159 19.7441 20.148 20.0506 20.3006C24.6538 22.5891 26.095 32.062 26.3878 37.2727H7.61222C7.89744 32.0545 9.34622 22.5891 13.9494 20.3006C14.2559 20.148 14.5144 19.9159 14.6972 19.6293C14.88 19.3427 14.9802 19.0123 14.987 18.6737C14.9938 18.3351 14.9069 18.0011 14.7358 17.7075C14.5646 17.414 14.3156 17.172 14.0156 17.0075C9.21967 14.3817 7.98433 7.16382 7.66511 3.72727H26.3349C26.0157 7.16382 24.7803 14.3817 19.9844 17.0075ZM17 22.3636C17 22.3636 22.6667 26.8364 22.6667 29.0727V35.4091H11.3333V29.0727C11.3333 26.8364 17 22.3636 17 22.3636Z" fill="black"/>
</svg>
