<svg width="55" height="44" viewBox="0 0 55 44" fill="none" xmlns="http://www.w3.org/2000/svg">
<path fill-rule="evenodd" clip-rule="evenodd" d="M9.97476 3.12625L44.9748 3.00005C48.8407 2.98611 51.986 6.10879 52 9.97476C52 9.98317 52 9.99159 52 10V27.5069C52 31.3729 48.866 34.5069 45 34.5069H10C6.13401 34.5069 3 31.3729 3 27.5069V10.1262C3 6.27007 6.11864 3.14016 9.97476 3.12625Z" stroke="black" stroke-width="5" stroke-linecap="round" stroke-linejoin="round"/>
<path d="M34.3833 17.3569L25.05 10.3569C24.2768 9.77704 23.1799 9.93374 22.6 10.7069C22.3728 11.0099 22.25 11.3783 22.25 11.7569V25.7569C22.25 26.7234 23.0335 27.5069 24 27.5069C24.3786 27.5069 24.7471 27.3841 25.05 27.1569L34.3833 20.1569C35.1565 19.577 35.3132 18.4801 34.7333 17.7069C34.6338 17.5743 34.516 17.4564 34.3833 17.3569Z" fill="black"/>
<path d="M9.87402 41.5069H45" stroke="black" stroke-width="5" stroke-linecap="round" stroke-linejoin="round"/>
</svg>
