<svg width="363" height="363" viewBox="0 0 363 363" fill="none" xmlns="http://www.w3.org/2000/svg">
<g filter="url(#filter0_d_692_196)">
<path fill-rule="evenodd" clip-rule="evenodd" d="M59.0802 51.1605C56.3053 51.1605 54.0556 53.4102 54.0556 56.1852V95.8956H308.944V56.1852C308.944 53.4101 306.695 51.1605 303.92 51.1605H59.0802ZM308.944 116.451H54.0556V270.42C54.0556 273.195 56.3051 275.444 59.0802 275.444H303.92C306.695 275.444 308.944 273.195 308.944 270.42V116.451ZM33.5 56.1852C33.5 42.0577 44.9527 30.605 59.0802 30.605H303.92C318.048 30.605 329.5 42.0579 329.5 56.1852V270.42C329.5 284.548 318.048 296 303.92 296H59.0802C44.9529 296 33.5 284.548 33.5 270.42V56.1852Z" fill="black"/>
</g>
<g filter="url(#filter1_d_692_196)">
<path fill-rule="evenodd" clip-rule="evenodd" d="M104.986 0C110.663 0 115.264 4.60152 115.264 10.2778V56.1852C115.264 61.8614 110.663 66.463 104.986 66.463C99.31 66.463 94.7085 61.8614 94.7085 56.1852V10.2778C94.7085 4.60152 99.31 0 104.986 0Z" fill="black"/>
</g>
<g filter="url(#filter2_d_692_196)">
<path fill-rule="evenodd" clip-rule="evenodd" d="M258.013 0C263.689 0 268.291 4.60152 268.291 10.2778V56.1852C268.291 61.8614 263.689 66.463 258.013 66.463C252.337 66.463 247.735 61.8614 247.735 56.1852V10.2778C247.735 4.60152 252.337 0 258.013 0Z" fill="black"/>
</g>
<g filter="url(#filter3_d_692_196)">
<path fill-rule="evenodd" clip-rule="evenodd" d="M232.431 148C232.431 142.324 237.033 137.722 242.709 137.722H273.314C278.99 137.722 283.592 142.324 283.592 148C283.592 153.676 278.99 158.278 273.314 158.278H242.709C237.033 158.278 232.431 153.676 232.431 148Z" fill="black"/>
</g>
<g filter="url(#filter4_d_692_196)">
<path fill-rule="evenodd" clip-rule="evenodd" d="M232.431 239.815C232.431 234.138 237.033 229.537 242.709 229.537H273.314C278.99 229.537 283.592 234.138 283.592 239.815C283.592 245.491 278.99 250.092 273.314 250.092H242.709C237.033 250.092 232.431 245.491 232.431 239.815Z" fill="black"/>
</g>
<g filter="url(#filter5_d_692_196)">
<path fill-rule="evenodd" clip-rule="evenodd" d="M155.92 148C155.92 142.324 160.522 137.722 166.198 137.722H196.803C202.479 137.722 207.081 142.324 207.081 148C207.081 153.676 202.479 158.278 196.803 158.278H166.198C160.522 158.278 155.92 153.676 155.92 148Z" fill="black"/>
</g>
<g filter="url(#filter6_d_692_196)">
<path fill-rule="evenodd" clip-rule="evenodd" d="M155.92 239.815C155.92 234.138 160.522 229.537 166.198 229.537H196.803C202.479 229.537 207.081 234.138 207.081 239.815C207.081 245.491 202.479 250.092 196.803 250.092H166.198C160.522 250.092 155.92 245.491 155.92 239.815Z" fill="black"/>
</g>
<g filter="url(#filter7_d_692_196)">
<path fill-rule="evenodd" clip-rule="evenodd" d="M79.4072 148C79.4072 142.324 84.0087 137.722 89.685 137.722H120.29C125.966 137.722 130.568 142.324 130.568 148C130.568 153.676 125.966 158.278 120.29 158.278H89.685C84.0087 158.278 79.4072 153.676 79.4072 148Z" fill="black"/>
</g>
<g filter="url(#filter8_d_692_196)">
<path fill-rule="evenodd" clip-rule="evenodd" d="M79.4072 239.815C79.4072 234.138 84.0087 229.537 89.685 229.537H120.29C125.966 229.537 130.568 234.138 130.568 239.815C130.568 245.491 125.966 250.092 120.29 250.092H89.685C84.0087 250.092 79.4072 245.491 79.4072 239.815Z" fill="black"/>
</g>
<g filter="url(#filter9_d_692_196)">
<path fill-rule="evenodd" clip-rule="evenodd" d="M232.431 193.907C232.431 188.231 237.033 183.629 242.709 183.629H273.314C278.99 183.629 283.592 188.231 283.592 193.907C283.592 199.583 278.99 204.185 273.314 204.185H242.709C237.033 204.185 232.431 199.583 232.431 193.907Z" fill="black"/>
</g>
<g filter="url(#filter10_d_692_196)">
<path fill-rule="evenodd" clip-rule="evenodd" d="M155.92 193.907C155.92 188.231 160.522 183.629 166.198 183.629H196.803C202.479 183.629 207.081 188.231 207.081 193.907C207.081 199.583 202.479 204.185 196.803 204.185H166.198C160.522 204.185 155.92 199.583 155.92 193.907Z" fill="black"/>
</g>
<g filter="url(#filter11_d_692_196)">
<path fill-rule="evenodd" clip-rule="evenodd" d="M79.4072 193.907C79.4072 188.231 84.0087 183.629 89.685 183.629H120.29C125.966 183.629 130.568 188.231 130.568 193.907C130.568 199.583 125.966 204.185 120.29 204.185H89.685C84.0087 204.185 79.4072 199.583 79.4072 193.907Z" fill="black"/>
</g>
<defs>
<filter id="filter0_d_692_196" x="0.166668" y="30.605" width="362.667" height="332.062" filterUnits="userSpaceOnUse" color-interpolation-filters="sRGB">
<feFlood flood-opacity="0" result="BackgroundImageFix"/>
<feColorMatrix in="SourceAlpha" type="matrix" values="0 0 0 0 0 0 0 0 0 0 0 0 0 0 0 0 0 0 127 0" result="hardAlpha"/>
<feOffset dy="33.3333"/>
<feGaussianBlur stdDeviation="16.6667"/>
<feColorMatrix type="matrix" values="0 0 0 0 0 0 0 0 0 0 0 0 0 0 0 0 0 0 0.1 0"/>
<feBlend mode="normal" in2="BackgroundImageFix" result="effect1_dropShadow_692_196"/>
<feBlend mode="normal" in="SourceGraphic" in2="effect1_dropShadow_692_196" result="shape"/>
</filter>
<filter id="filter1_d_692_196" x="61.3752" y="0" width="87.2223" height="133.13" filterUnits="userSpaceOnUse" color-interpolation-filters="sRGB">
<feFlood flood-opacity="0" result="BackgroundImageFix"/>
<feColorMatrix in="SourceAlpha" type="matrix" values="0 0 0 0 0 0 0 0 0 0 0 0 0 0 0 0 0 0 127 0" result="hardAlpha"/>
<feOffset dy="33.3333"/>
<feGaussianBlur stdDeviation="16.6667"/>
<feColorMatrix type="matrix" values="0 0 0 0 0 0 0 0 0 0 0 0 0 0 0 0 0 0 0.1 0"/>
<feBlend mode="normal" in2="BackgroundImageFix" result="effect1_dropShadow_692_196"/>
<feBlend mode="normal" in="SourceGraphic" in2="effect1_dropShadow_692_196" result="shape"/>
</filter>
<filter id="filter2_d_692_196" x="214.402" y="0" width="87.2223" height="133.13" filterUnits="userSpaceOnUse" color-interpolation-filters="sRGB">
<feFlood flood-opacity="0" result="BackgroundImageFix"/>
<feColorMatrix in="SourceAlpha" type="matrix" values="0 0 0 0 0 0 0 0 0 0 0 0 0 0 0 0 0 0 127 0" result="hardAlpha"/>
<feOffset dy="33.3333"/>
<feGaussianBlur stdDeviation="16.6667"/>
<feColorMatrix type="matrix" values="0 0 0 0 0 0 0 0 0 0 0 0 0 0 0 0 0 0 0.1 0"/>
<feBlend mode="normal" in2="BackgroundImageFix" result="effect1_dropShadow_692_196"/>
<feBlend mode="normal" in="SourceGraphic" in2="effect1_dropShadow_692_196" result="shape"/>
</filter>
<filter id="filter3_d_692_196" x="199.098" y="137.722" width="117.827" height="87.2222" filterUnits="userSpaceOnUse" color-interpolation-filters="sRGB">
<feFlood flood-opacity="0" result="BackgroundImageFix"/>
<feColorMatrix in="SourceAlpha" type="matrix" values="0 0 0 0 0 0 0 0 0 0 0 0 0 0 0 0 0 0 127 0" result="hardAlpha"/>
<feOffset dy="33.3333"/>
<feGaussianBlur stdDeviation="16.6667"/>
<feColorMatrix type="matrix" values="0 0 0 0 0 0 0 0 0 0 0 0 0 0 0 0 0 0 0.1 0"/>
<feBlend mode="normal" in2="BackgroundImageFix" result="effect1_dropShadow_692_196"/>
<feBlend mode="normal" in="SourceGraphic" in2="effect1_dropShadow_692_196" result="shape"/>
</filter>
<filter id="filter4_d_692_196" x="199.098" y="229.537" width="117.827" height="87.2222" filterUnits="userSpaceOnUse" color-interpolation-filters="sRGB">
<feFlood flood-opacity="0" result="BackgroundImageFix"/>
<feColorMatrix in="SourceAlpha" type="matrix" values="0 0 0 0 0 0 0 0 0 0 0 0 0 0 0 0 0 0 127 0" result="hardAlpha"/>
<feOffset dy="33.3333"/>
<feGaussianBlur stdDeviation="16.6667"/>
<feColorMatrix type="matrix" values="0 0 0 0 0 0 0 0 0 0 0 0 0 0 0 0 0 0 0.1 0"/>
<feBlend mode="normal" in2="BackgroundImageFix" result="effect1_dropShadow_692_196"/>
<feBlend mode="normal" in="SourceGraphic" in2="effect1_dropShadow_692_196" result="shape"/>
</filter>
<filter id="filter5_d_692_196" x="122.587" y="137.722" width="117.827" height="87.2222" filterUnits="userSpaceOnUse" color-interpolation-filters="sRGB">
<feFlood flood-opacity="0" result="BackgroundImageFix"/>
<feColorMatrix in="SourceAlpha" type="matrix" values="0 0 0 0 0 0 0 0 0 0 0 0 0 0 0 0 0 0 127 0" result="hardAlpha"/>
<feOffset dy="33.3333"/>
<feGaussianBlur stdDeviation="16.6667"/>
<feColorMatrix type="matrix" values="0 0 0 0 0 0 0 0 0 0 0 0 0 0 0 0 0 0 0.1 0"/>
<feBlend mode="normal" in2="BackgroundImageFix" result="effect1_dropShadow_692_196"/>
<feBlend mode="normal" in="SourceGraphic" in2="effect1_dropShadow_692_196" result="shape"/>
</filter>
<filter id="filter6_d_692_196" x="122.587" y="229.537" width="117.827" height="87.2222" filterUnits="userSpaceOnUse" color-interpolation-filters="sRGB">
<feFlood flood-opacity="0" result="BackgroundImageFix"/>
<feColorMatrix in="SourceAlpha" type="matrix" values="0 0 0 0 0 0 0 0 0 0 0 0 0 0 0 0 0 0 127 0" result="hardAlpha"/>
<feOffset dy="33.3333"/>
<feGaussianBlur stdDeviation="16.6667"/>
<feColorMatrix type="matrix" values="0 0 0 0 0 0 0 0 0 0 0 0 0 0 0 0 0 0 0.1 0"/>
<feBlend mode="normal" in2="BackgroundImageFix" result="effect1_dropShadow_692_196"/>
<feBlend mode="normal" in="SourceGraphic" in2="effect1_dropShadow_692_196" result="shape"/>
</filter>
<filter id="filter7_d_692_196" x="46.0739" y="137.722" width="117.827" height="87.2222" filterUnits="userSpaceOnUse" color-interpolation-filters="sRGB">
<feFlood flood-opacity="0" result="BackgroundImageFix"/>
<feColorMatrix in="SourceAlpha" type="matrix" values="0 0 0 0 0 0 0 0 0 0 0 0 0 0 0 0 0 0 127 0" result="hardAlpha"/>
<feOffset dy="33.3333"/>
<feGaussianBlur stdDeviation="16.6667"/>
<feColorMatrix type="matrix" values="0 0 0 0 0 0 0 0 0 0 0 0 0 0 0 0 0 0 0.1 0"/>
<feBlend mode="normal" in2="BackgroundImageFix" result="effect1_dropShadow_692_196"/>
<feBlend mode="normal" in="SourceGraphic" in2="effect1_dropShadow_692_196" result="shape"/>
</filter>
<filter id="filter8_d_692_196" x="46.0739" y="229.537" width="117.827" height="87.2222" filterUnits="userSpaceOnUse" color-interpolation-filters="sRGB">
<feFlood flood-opacity="0" result="BackgroundImageFix"/>
<feColorMatrix in="SourceAlpha" type="matrix" values="0 0 0 0 0 0 0 0 0 0 0 0 0 0 0 0 0 0 127 0" result="hardAlpha"/>
<feOffset dy="33.3333"/>
<feGaussianBlur stdDeviation="16.6667"/>
<feColorMatrix type="matrix" values="0 0 0 0 0 0 0 0 0 0 0 0 0 0 0 0 0 0 0.1 0"/>
<feBlend mode="normal" in2="BackgroundImageFix" result="effect1_dropShadow_692_196"/>
<feBlend mode="normal" in="SourceGraphic" in2="effect1_dropShadow_692_196" result="shape"/>
</filter>
<filter id="filter9_d_692_196" x="199.098" y="183.629" width="117.827" height="87.2222" filterUnits="userSpaceOnUse" color-interpolation-filters="sRGB">
<feFlood flood-opacity="0" result="BackgroundImageFix"/>
<feColorMatrix in="SourceAlpha" type="matrix" values="0 0 0 0 0 0 0 0 0 0 0 0 0 0 0 0 0 0 127 0" result="hardAlpha"/>
<feOffset dy="33.3333"/>
<feGaussianBlur stdDeviation="16.6667"/>
<feColorMatrix type="matrix" values="0 0 0 0 0 0 0 0 0 0 0 0 0 0 0 0 0 0 0.1 0"/>
<feBlend mode="normal" in2="BackgroundImageFix" result="effect1_dropShadow_692_196"/>
<feBlend mode="normal" in="SourceGraphic" in2="effect1_dropShadow_692_196" result="shape"/>
</filter>
<filter id="filter10_d_692_196" x="122.587" y="183.629" width="117.827" height="87.2222" filterUnits="userSpaceOnUse" color-interpolation-filters="sRGB">
<feFlood flood-opacity="0" result="BackgroundImageFix"/>
<feColorMatrix in="SourceAlpha" type="matrix" values="0 0 0 0 0 0 0 0 0 0 0 0 0 0 0 0 0 0 127 0" result="hardAlpha"/>
<feOffset dy="33.3333"/>
<feGaussianBlur stdDeviation="16.6667"/>
<feColorMatrix type="matrix" values="0 0 0 0 0 0 0 0 0 0 0 0 0 0 0 0 0 0 0.1 0"/>
<feBlend mode="normal" in2="BackgroundImageFix" result="effect1_dropShadow_692_196"/>
<feBlend mode="normal" in="SourceGraphic" in2="effect1_dropShadow_692_196" result="shape"/>
</filter>
<filter id="filter11_d_692_196" x="46.0739" y="183.629" width="117.827" height="87.2222" filterUnits="userSpaceOnUse" color-interpolation-filters="sRGB">
<feFlood flood-opacity="0" result="BackgroundImageFix"/>
<feColorMatrix in="SourceAlpha" type="matrix" values="0 0 0 0 0 0 0 0 0 0 0 0 0 0 0 0 0 0 127 0" result="hardAlpha"/>
<feOffset dy="33.3333"/>
<feGaussianBlur stdDeviation="16.6667"/>
<feColorMatrix type="matrix" values="0 0 0 0 0 0 0 0 0 0 0 0 0 0 0 0 0 0 0.1 0"/>
<feBlend mode="normal" in2="BackgroundImageFix" result="effect1_dropShadow_692_196"/>
<feBlend mode="normal" in="SourceGraphic" in2="effect1_dropShadow_692_196" result="shape"/>
</filter>
</defs>
</svg>
