<svg width="30" height="45" viewBox="0 0 30 45" fill="none" xmlns="http://www.w3.org/2000/svg">
<path fill-rule="evenodd" clip-rule="evenodd" d="M25.732 18.808L24.9949 24.0464H16.1414V42.3807H10.7609V24.0464H2.69022V18.808H10.7609V14.0071C10.7609 7.34651 14.9631 3.04056 21.4707 3.04056C24.2578 3.04056 25.9957 3.18462 26.9992 3.31557L26.9211 8.27632L22.7835 8.28417C22.6706 8.27369 19.975 8.0694 18.0299 9.80854C16.7763 10.9269 16.1414 12.5351 16.1414 14.5833V18.808H25.732V18.808ZM19.8351 11.7494C20.895 10.7881 22.5468 10.8929 22.6679 10.8981L29.571 10.8955L29.719 1.2019L28.6805 0.953078C28.0134 0.793338 25.9715 0.421387 21.4707 0.421387C13.4565 0.421387 8.07068 5.88239 8.07068 14.0071V16.1889H0V26.6656H8.07068V44.9998H18.8316V26.6656H27.3381L28.815 16.1889H18.8316V14.5833C18.8316 13.3078 19.1706 12.3544 19.8351 11.7494Z" fill="white"/>
</svg>
