<svg width="46" height="44" viewBox="0 0 46 44" fill="none" xmlns="http://www.w3.org/2000/svg">
<path d="M11.7045 16.7871V16.0371H10.9545H3.06342H2.31342V16.7871V42.1813V42.9313H3.06342H10.9545H11.7045V42.1813V16.7871Z" stroke="white" stroke-width="1.5"/>
<path d="M12.3527 6.08143L12.3529 6.08142L12.3525 6.06739C12.3164 4.63485 11.7852 3.33914 10.8101 2.40126C9.83382 1.46225 8.4647 0.931641 6.84281 0.931641C5.22337 0.931641 3.82656 1.46046 2.82793 2.3939C1.82717 3.32932 1.26962 4.63208 1.26962 6.08627C1.26962 8.98886 3.47972 11.2409 6.73212 11.2409H6.79537C8.44973 11.2409 9.84904 10.6939 10.8379 9.74917C11.827 8.80427 12.3619 7.50173 12.3527 6.08143Z" stroke="white" stroke-width="1.5"/>
<path d="M16.5693 42.1767C16.5693 42.1769 16.5693 42.177 17.3193 42.1806L16.5693 42.177L16.5658 42.9306H17.3193H26.1908H26.9408V42.1806V28.4578C26.9408 28.3617 26.9404 28.269 26.94 28.1792C26.9387 27.884 26.9376 27.6201 26.9515 27.3685C26.9697 27.0411 27.0113 26.8138 27.0747 26.659L27.0747 26.659L27.0785 26.6495C27.6153 25.2857 28.7169 24.0082 30.6503 24.0082C31.9747 24.0082 32.8567 24.499 33.4359 25.3026C34.042 26.1438 34.3756 27.4129 34.3756 29.0462V42.1806V42.9306H35.1256H44.0762H44.8262V42.1806V28.0603C44.8262 23.9944 43.6863 20.9122 41.7202 18.8419C39.752 16.7694 37.0379 15.7979 34.0661 15.7979C31.6655 15.7979 29.6889 16.4568 28.2298 17.3713C27.7472 17.6738 27.3148 18.0087 26.9408 18.362V16.7864V16.0364H26.1908H17.3193H16.5291L16.5704 16.8256C16.6243 17.8561 16.6247 24.1717 16.6108 30.2748C16.6039 33.3164 16.5936 36.2919 16.5849 38.5072C16.5806 39.6148 16.5767 40.5323 16.5739 41.1729L16.5706 41.9152L16.5697 42.1102L16.5694 42.1601L16.5694 42.1728L16.5693 42.1759L16.5693 42.1767Z" stroke="white" stroke-width="1.5"/>
</svg>
