<svg width="57" height="42" viewBox="0 0 57 42" fill="none" xmlns="http://www.w3.org/2000/svg">
<path fill-rule="evenodd" clip-rule="evenodd" d="M13.5079 0.00750663H43.4921C50.6803 -0.233897 56.7176 5.37668 56.9985 12.568C56.9995 12.5939 57 12.6197 57 12.6456V28.4624C57 28.4883 56.9995 28.5141 56.9985 28.54C56.7176 35.7315 50.6803 41.3419 43.4921 41.1005H13.5079C6.31985 41.3419 0.282347 35.7315 0.00151432 28.54C0.000504879 28.5141 0 28.4883 0 28.4624V12.6456C0 12.6197 0.000504879 12.5939 0.00151448 12.568C0.282348 5.37666 6.31984 -0.233897 13.5079 0.00750663ZM3.97674 12.6863V28.4217C4.19171 33.4175 8.39927 37.3072 13.4009 37.1251C13.425 37.1242 13.4491 37.1237 13.4732 37.1237H43.5268C43.5509 37.1237 43.575 37.1242 43.5991 37.1251C48.6008 37.3072 52.8082 33.4175 53.0233 28.4217V12.6863C52.8082 7.69061 48.6008 3.80085 43.5991 3.98293C43.575 3.98381 43.5509 3.98425 43.5268 3.98425H13.4732C13.4491 3.98425 13.425 3.98381 13.4009 3.98293C8.39929 3.80085 4.19171 7.69066 3.97674 12.6863Z" fill="white"/>
<path fill-rule="evenodd" clip-rule="evenodd" d="M25.186 14.7108V26.3978C25.2134 26.4159 25.2537 26.4381 25.3097 26.4595C25.5749 26.5608 25.8662 26.5291 26.0562 26.413L34.2916 20.2905L26.0781 14.7093C26.0781 14.7092 26.0782 14.7093 26.0781 14.7093C25.8925 14.5831 25.5886 14.543 25.3098 14.6493C25.254 14.6706 25.2137 14.6927 25.186 14.7108ZM23.8924 10.9337C25.2155 10.429 26.9107 10.4671 28.3131 11.42L36.6477 17.0835C37.7601 17.7654 38.4411 18.9775 38.4411 20.2863C38.4411 21.5781 37.7778 22.7763 36.69 23.4628L28.3819 29.6393C28.3589 29.6564 28.3355 29.673 28.3118 29.6891C26.91 30.64 25.2156 30.6807 23.8905 30.1744C22.5818 29.6745 21.2093 28.4328 21.2093 26.5165V14.5864C21.2093 12.6693 22.5882 11.4313 23.8924 10.9337Z" fill="white"/>
</svg>
