<svg width="231" height="65" viewBox="0 0 231 65" fill="none" xmlns="http://www.w3.org/2000/svg">
<path d="M36.8129 29.2979H22.1757V31.8365H36.8129V29.2979Z" fill="#D9D9D9"/>
<path d="M36.8129 33.0493H22.1757V36.2085H36.8129V33.0493Z" fill="#D9D9D9"/>
<path d="M26.2302 31.3346V35.876H26.9649V31.3346H26.2302Z" fill="#D9D9D9"/>
<path d="M31.7874 31.6032V36.1445H32.7764V31.6032H31.7874Z" fill="#D9D9D9"/>
<path d="M18.3044 53.8099H13.1051C11.3249 53.8099 9.8555 52.3714 9.8555 50.5661V14.4045C9.8555 12.6274 11.2966 11.1606 13.1051 11.1606H18.2761V53.8099H18.3044Z" fill="white"/>
<path d="M19.4629 53.8099H17.5414C15.7612 53.8099 14.2919 52.3714 14.2919 50.5661V14.4045C14.2919 12.6274 15.7612 11.1606 17.5414 11.1606H19.4629C21.2431 11.1606 22.7125 12.5992 22.7125 14.4045V50.5661C22.7125 52.3432 21.2714 53.8099 19.4629 53.8099Z" fill="#D9D9D9"/>
<path d="M42.3796 47.125H38.5366C37.4628 47.125 36.5869 46.2506 36.5869 45.1787V20.4974C36.5869 19.0588 37.7454 17.9023 39.1865 17.9023H43.9902C44.5554 17.9023 45.0075 18.3537 45.0075 18.9178V44.5582C44.9792 45.9685 43.8207 47.125 42.3796 47.125Z" fill="white"/>
<path d="M40.8819 20.5537C40.8819 20.3845 41.0232 18.9177 42.1535 18.2407C42.7469 17.9022 43.3968 17.874 43.6229 17.874C43.8772 17.874 44.4423 17.874 45.0075 18.1843C45.4031 18.41 45.6574 18.692 45.8269 18.8895C46.4203 19.6511 49.6417 24.3899 53.9933 30.934C54.0215 30.9622 54.1911 31.1596 54.2193 31.4417C54.2193 31.752 54.0498 31.9494 53.9933 31.9776C50.7154 36.8293 47.4093 41.6809 44.1315 46.5608C43.9902 46.6454 43.7924 46.7864 43.5381 46.871C43.2838 46.9557 42.9447 47.0967 42.5208 47.0403C42.0405 46.9839 41.7014 46.73 41.5884 46.6454C40.9667 46.1377 40.9102 45.3478 40.9102 45.235C40.8819 37.0267 40.8819 28.7902 40.8819 20.5537Z" fill="#D9D9D9"/>
<path d="M54.4736 62.6952H9.60119C5.39086 62.6952 2 59.3104 2 55.1075V9.86313C2 5.66026 5.39086 2.27539 9.60119 2.27539H54.5019C58.7122 2.27539 62.1031 5.66026 62.1031 9.86313V55.1075C62.0748 59.2822 58.6839 62.6952 54.4736 62.6952Z" stroke="white" stroke-width="2.9535" stroke-miterlimit="10"/>
<path d="M101.607 1.42914C101.607 1.73942 102.398 2.75488 102.398 2.50101C102.398 2.02149 103.189 3.40364 103.189 3.88317C103.189 4.84221 102.172 7.66293 99.6852 13.4736C95.7857 22.3589 94.8815 24.4744 94.8815 24.6437C94.8815 24.7565 95.5879 25.0104 96.4921 25.236C98.8375 25.772 99.4874 26.0822 99.7982 26.7874C100.053 27.4362 99.9112 27.7465 99.4874 27.3798C99.2331 27.1259 95.2771 26.5336 94.5424 26.59C94.0055 26.7028 93.4121 27.9721 91.8862 32.4289C90.0777 37.5908 88.3823 45.7427 88.3258 49.2968C88.3258 50.3687 88.2127 50.4533 87.3085 49.8891C86.9412 49.6635 86.4043 48.9865 85.9239 47.9146L85.0762 46.3068L85.1327 43.1758C85.1327 38.6627 85.8391 35.1368 87.7324 29.1286C88.1562 27.8029 88.4671 26.731 88.4388 26.6746C88.2693 26.5618 85.387 26.9285 83.2677 27.3798C81.2897 27.8029 76.2317 29.2979 76.2317 29.4953C76.2317 29.5517 75.9774 30.8211 75.5253 32.3725C74.6776 35.8419 74.3102 38.0139 73.9711 41.568C73.8016 43.7964 73.8016 44.4451 73.9711 44.699C74.395 45.1785 73.7451 45.2914 72.8408 44.8118C72.1344 44.5016 71.9366 44.1631 71.2867 42.7809C70.3259 40.8064 70.1564 39.0011 70.4955 34.629C70.665 33.0212 70.7215 31.6955 70.7215 31.6391C70.665 31.6391 70.2412 31.7519 69.7608 31.8929C68.9696 32.1468 68.8 32.1468 68.3762 31.8365C68.0088 31.6109 67.9523 31.4134 68.0089 31.1313C68.1219 30.8211 68.0088 30.7082 67.5285 30.5954C67.0481 30.4826 66.5677 30.0595 66.6808 29.7492C66.7373 29.6928 66.6242 29.5799 66.4547 29.5235C65.7483 29.044 68.0936 27.1823 70.6085 26.2797L71.9366 25.7438L72.4735 23.7693C74.4232 16.379 79.0009 5.80126 81.2615 3.40364C82.3918 2.24715 83.0134 2.13432 83.7764 2.92412C84.0307 3.2344 84.4263 3.6293 84.6806 3.71392C85.387 4.13703 85.161 5.40636 83.8329 8.76301C83.1265 10.4554 81.9679 13.2762 81.2332 15.0532C80.0464 17.9304 77.8706 23.9385 77.8706 24.3052C77.8706 24.3616 78.6618 24.3052 79.6226 24.1359C80.6398 23.9667 83.2395 23.8257 85.4435 23.7693C87.6193 23.6564 89.4278 23.6 89.4278 23.6C89.4278 23.3461 91.2928 18.3817 92.084 16.5764C94.0055 12.0068 97.9897 4.22165 99.4874 2.21894C100.335 1.06244 101.607 0.582921 101.607 1.42914ZM72.0779 38.8319C72.0214 38.3524 72.0214 38.7191 72.0214 39.6781C72.0214 40.6372 72.0214 41.0039 72.0779 40.5808C72.1344 40.1294 72.1344 39.3114 72.0779 38.8319ZM72.7843 33.6418C73.0104 32.034 73.1517 30.7082 73.0951 30.6518C72.9256 30.4826 72.1344 35.9266 72.1909 37.0831C72.1909 37.8164 72.2474 37.8729 72.3039 37.3087C72.3605 36.8856 72.5583 35.2778 72.7843 33.6418ZM72.7278 37.7318C72.6713 37.5062 72.6148 37.6754 72.6148 38.0985C72.6148 38.4652 72.6713 38.6345 72.7278 38.4088C72.7278 38.2678 72.7278 37.9293 72.7278 37.7318ZM72.8691 36.124C72.8126 35.8984 72.8126 36.0676 72.8126 36.4343C72.8126 36.8574 72.8126 37.0266 72.8691 36.801C72.9256 36.6035 72.9256 36.2933 72.8691 36.124ZM73.0951 34.488C73.0386 34.2623 72.9821 34.488 72.9821 34.8547C72.9821 35.2214 73.0386 35.3906 73.0951 35.165C73.1517 35.0239 73.1517 34.6854 73.0951 34.488ZM73.8298 30.4262C73.6603 30.5954 73.1234 33.2469 73.1799 33.7264C73.1799 34.0367 73.9146 31.0185 73.9146 30.4826C73.9429 30.3697 73.9429 30.3697 73.8298 30.4262ZM75.9774 21.1178C77.8989 15.4199 80.1877 9.8913 82.42 5.63201C82.9569 4.67297 83.1547 4.13703 82.9569 4.4191C82.7309 4.67297 81.9962 6.05512 81.318 7.46548C79.0292 12.0351 76.7968 17.6201 75.1297 22.8948C73.9994 26.4489 74.5928 25.2078 75.9774 21.1178ZM82.7309 6.59106C83.3808 5.26532 83.8894 4.13703 83.8611 4.08062C83.6351 3.85496 80.1877 11.217 78.464 15.561C77.0512 19.1997 75.2144 24.7001 75.384 24.7001C75.497 24.7001 75.6948 24.3334 75.8078 23.8539C76.7686 20.2716 80.3855 11.217 82.7309 6.59106ZM86.7434 44.1067C86.6869 43.6271 86.6303 43.9938 86.6303 44.84C86.6303 45.7427 86.6869 46.1658 86.7434 45.7427C86.7434 45.3478 86.7434 44.5862 86.7434 44.1067ZM87.2238 40.6936C87.4498 39.3114 87.8737 37.0831 88.1845 35.7573C88.5518 34.4316 89.3148 31.8647 89.9364 30.0595C90.5298 28.2542 91.0667 26.7028 91.0667 26.59C91.0102 25.8566 89.2583 31.0185 88.2975 34.5162C87.5628 37.2241 86.7434 41.5962 86.7999 42.6681C86.7999 42.9784 86.9977 42.1321 87.2238 40.6936ZM86.9129 39.0576C86.9694 39.0011 86.9694 38.8037 86.9129 38.6909C86.8564 38.4652 86.7999 38.5216 86.7999 38.8037C86.7999 39.0011 86.8564 39.114 86.9129 39.0576ZM87.3368 43.3169C87.2803 43.063 87.2238 43.2604 87.2238 43.7964C87.2238 44.2759 87.2803 44.5016 87.3368 44.2195C87.3933 43.9374 87.3933 43.5707 87.3368 43.3169ZM87.7606 40.609C87.7606 40.0166 87.4498 41.3424 87.4498 42.0475C87.4498 42.5835 87.4498 42.5271 87.6194 41.8219C87.7041 41.3988 87.7606 40.8628 87.7606 40.609ZM89.7669 32.2878C89.5408 32.0622 87.7889 38.8319 87.7889 39.5653C87.7889 39.8192 88.0432 39.0294 88.3258 37.8729C88.5801 36.7164 89.0322 34.9957 89.343 34.0367C89.6256 33.1623 89.8234 32.3442 89.7669 32.2878ZM89.4561 29.1568C89.4561 29.3261 89.5691 29.1568 89.7104 28.7337C89.8799 28.367 89.9647 27.9439 89.9647 27.8311C89.9647 27.7183 89.8517 27.9439 89.7104 28.2542C89.5691 28.5645 89.4561 28.9876 89.4561 29.1568ZM91.3776 27.549C91.208 27.6618 89.8234 31.5827 89.8234 31.8647C89.8234 32.2314 89.993 31.8647 90.6146 29.9466C90.982 28.8748 91.3493 27.9157 91.4058 27.7183C91.4906 27.549 91.4341 27.5208 91.3776 27.549ZM91.4341 23.6846C91.5471 23.5154 91.6601 23.1487 91.7449 22.8948C91.8579 22.5281 91.8014 22.4717 91.6884 22.6692C91.5754 22.8384 91.4341 23.2051 91.3776 23.459C91.2645 23.8257 91.2645 23.8821 91.4341 23.6846ZM91.8579 26.6182C91.8579 26.5054 91.7449 26.5618 91.6319 26.731C91.5188 26.9003 91.4341 27.1259 91.4341 27.2387C91.4341 27.3516 91.5471 27.2952 91.6601 27.1259C91.7449 26.9849 91.8579 26.7592 91.8579 26.6182ZM101.55 2.67026C101.437 2.55743 96.0683 13.5864 94.7402 16.6046C92.8752 20.9203 91.4906 24.5308 91.9144 24.0513C91.971 24.0513 92.4513 22.8948 92.9882 21.5409C94.4859 17.8175 96.2378 13.9249 100.024 6.05512C100.872 4.24986 101.55 2.72667 101.55 2.67026ZM92.0275 22.0768C92.1405 21.9076 92.2818 21.5409 92.3383 21.2306C92.4513 20.9203 92.4513 20.8639 92.2818 21.0614C92.1688 21.2306 92.0557 21.5973 91.971 21.8512C91.8579 22.1896 91.9144 22.3025 92.0275 22.0768ZM92.4513 20.5818C92.4513 20.8357 92.7056 20.3562 93.8359 17.7047C94.5424 16.0969 95.7009 13.5018 96.4921 11.8658C97.2833 10.1734 97.9332 8.79122 97.8767 8.73481C97.7072 8.56556 92.4513 20.0741 92.4513 20.5818ZM94.4576 19.6228C94.4576 19.5664 94.3446 19.6792 94.2315 19.9331C93.8642 20.5254 92.6209 23.7128 92.6209 23.9667C92.6209 24.0795 93.0447 23.1769 93.5816 21.9358C94.0903 20.7511 94.4576 19.6792 94.4576 19.6228ZM94.9097 18.7202C94.9097 18.6073 94.7967 18.6637 94.6837 18.833C94.5706 19.0022 94.5141 19.1997 94.5141 19.3125C94.5141 19.4253 94.5706 19.3689 94.6837 19.1997C94.7967 19.0586 94.9097 18.833 94.9097 18.7202ZM95.4748 17.2816C95.4748 17.1688 95.4183 17.2252 95.3053 17.3944C95.1923 17.5637 95.0793 17.7611 95.0793 17.9304C95.0793 18.0432 95.1923 17.9868 95.3053 17.8175C95.4183 17.6765 95.4748 17.3944 95.4748 17.2816ZM96.7182 14.6865C96.7182 14.5173 96.5486 14.7994 96.3508 15.1661C96.1248 15.5327 95.927 15.9559 95.927 16.0687C95.927 16.1815 96.153 15.9559 96.3508 15.5892C96.5486 15.1661 96.7182 14.7994 96.7182 14.6865ZM99.6287 5.2089C99.6852 5.2089 99.8547 5.03966 99.9395 4.84221C100.109 4.61655 100.166 4.4191 100.109 4.4191C100.053 4.4191 99.883 4.64476 99.7982 4.84221C99.6287 5.06787 99.6004 5.2089 99.6287 5.2089ZM100.166 4.05241C100.166 4.30627 100.335 4.27807 100.42 3.88317C100.533 3.71392 100.476 3.6293 100.363 3.71392C100.279 3.77034 100.166 3.93958 100.166 4.05241Z" fill="white"/>
<path d="M112.966 20.9205C113.503 21.4 113.983 21.7103 114.04 21.7103C114.096 21.7103 114.351 22.0205 114.633 22.4154C115.961 24.3335 114.04 29.6647 111.158 32.2033C108.643 34.3753 106.41 34.7702 103.895 33.3881C103.585 33.1624 102.822 36.2088 102.737 38.1833C102.624 40.1014 102.68 40.4681 103.048 41.3143L103.472 42.2733L104.687 42.2169C106.552 42.0477 108.897 40.8348 110.762 38.9731C111.553 38.1269 112.627 36.8575 113.164 36.0959C113.757 35.1933 114.181 34.7702 114.379 34.883C115.99 35.4754 111.016 42.6964 108.049 44.135C107.569 44.3889 106.721 44.5581 105.817 44.6145C104.489 44.6709 104.319 44.6709 102.737 43.7683C100.815 42.64 99.4874 41.4271 98.8375 40.1578C97.0855 36.4908 98.5266 30.2006 102.313 25.5182C104.489 22.8103 106.693 21.0897 109.18 20.3563C110.875 19.7922 111.694 19.905 112.966 20.9205ZM99.9677 34.4881C99.9112 34.3189 99.8547 34.3753 99.8547 34.601C99.8547 34.8266 99.9112 34.9112 99.9677 34.8548C100.024 34.7984 100.053 34.6292 99.9677 34.4881ZM100.279 33.5855C100.335 33.3598 100.448 33.0496 100.448 32.8803C100.448 32.6547 100.392 32.7111 100.279 32.9932C100.166 33.2188 100.053 33.5291 100.053 33.6983C100.053 33.8958 100.109 33.8394 100.279 33.5855ZM100.392 35.701C100.561 34.9959 100.872 33.7265 101.126 32.8803C101.663 31.2443 101.663 30.7648 101.183 31.9777C100.759 32.9932 100.335 34.7984 100.166 36.0113C100.053 36.9704 100.109 36.914 100.392 35.701ZM101.183 34.6856C101.126 34.5163 101.07 34.5163 101.07 34.7984C101.07 35.0241 101.126 35.1087 101.183 35.0523C101.239 35.0241 101.239 34.7984 101.183 34.6856ZM101.409 33.7265C101.296 34.2625 101.352 34.1496 101.663 33.4163C101.889 32.8239 102.031 32.2598 102.031 32.0905C102.087 31.611 101.55 32.9367 101.409 33.7265ZM102.793 28.8467C102.737 28.8467 102.624 29.0159 102.483 29.2134C102.37 29.4672 102.313 29.6365 102.37 29.6365C102.426 29.6365 102.596 29.4672 102.68 29.2134C102.793 28.9877 102.85 28.8467 102.793 28.8467ZM104.263 27.7748C103.952 28.0287 102.765 30.0596 102.935 30.0596C102.991 30.0596 103.359 29.4672 103.782 28.7903C104.235 28.0851 104.432 27.662 104.263 27.7748ZM107.428 27.2389C106.241 28.7903 104.545 31.3853 104.545 31.6956C104.545 32.0623 106.156 31.8084 107.258 31.2725C108.812 30.5673 110.338 28.9313 111.299 27.0132C111.949 25.6875 112.57 23.4591 112.373 23.177C112.005 22.8386 109.067 25.208 107.428 27.2389ZM104.545 27.3517C104.545 27.521 104.715 27.4081 104.969 27.0414C105.195 26.7311 105.195 26.7311 104.856 26.985C104.715 27.126 104.545 27.2953 104.545 27.3517ZM112.429 27.6056C112.203 28.0851 112.203 28.0851 112.542 27.7184C112.712 27.4927 112.853 27.2389 112.853 27.126C112.853 26.8722 112.74 26.985 112.429 27.6056Z" fill="white"/>
<path d="M138.058 20.3846C138.058 20.6102 137.748 21.7103 137.324 22.8386C134.131 31.7521 133.537 34.2061 133.537 38.1551C133.537 39.7911 133.65 41.5682 133.848 42.5836C134.018 43.5427 134.102 44.3889 134.074 44.5017C133.961 44.7274 133.424 44.671 133.283 44.4453C133.226 44.2761 132.803 44.0786 132.379 43.9094C131.418 43.4863 129.92 41.8785 129.553 40.863C129.44 40.3835 129.299 38.8885 129.186 37.4499L129.073 34.8831L127.942 36.6883C126.445 39.1424 124.636 41.2579 123.619 41.7374C122.658 42.2734 121.443 42.2734 120.793 41.7938C120.539 41.5682 120.059 41.3707 119.776 41.2579C118.985 41.0887 117.798 39.7629 117.318 38.55C116.526 36.4345 116.837 32.429 118.109 28.7057C119.183 25.6311 122.15 21.1462 124.015 19.764C126.614 17.7895 129.242 17.5356 130.796 19.0588C131.503 19.764 132.181 20.2153 132.435 20.2153C132.548 20.2153 132.916 19.7922 133.226 19.3127C134.187 17.7613 135.402 17.3946 136.165 18.4101C136.42 18.7203 136.759 19.0024 136.956 19.0024C137.437 19.0588 138.058 19.8486 138.058 20.3846ZM118.731 34.9677C118.674 34.742 118.618 34.9113 118.618 35.278C118.618 35.7011 118.674 35.8703 118.731 35.6447C118.759 35.4472 118.759 35.1087 118.731 34.9677ZM118.985 33.8958C119.041 33.5855 119.154 33.1906 119.154 33.0496C119.154 32.9086 119.098 32.8804 118.985 33.1624C118.872 33.3881 118.815 33.7548 118.815 33.9522C118.815 34.3189 118.815 34.2625 118.985 33.8958ZM120.115 32.147C120.369 31.0187 121.019 29.3827 121.443 28.48C122.347 26.5055 122.347 26.1953 121.387 28.0005C120.115 30.5674 118.928 34.9677 118.985 37.055C118.985 37.5346 119.098 37.1679 119.296 35.9832C119.465 34.9677 119.776 33.1906 120.115 32.147ZM121.443 30.7084C122.234 28.48 122.602 27.7184 124.015 25.6029C124.608 24.6439 125.032 23.9669 124.919 23.9951C124.552 24.2208 122.941 26.8158 122.206 28.3108C121.302 30.1161 120.567 32.3444 120.115 34.3189C119.635 36.7165 119.748 36.8858 120.341 34.5728C120.539 33.4727 121.076 31.7239 121.443 30.7084ZM131.248 24.3618C131.785 22.754 131.785 22.2745 131.135 22.2745C129.751 22.2745 126.812 25.349 125.004 28.6493C123.45 31.3572 121.585 36.9986 121.585 38.9167V39.7065L122.121 39.3962C122.432 39.1706 123.139 38.4372 123.76 37.7602C125.993 35.1087 129.949 28.7057 130.429 26.9569C130.655 26.3927 130.966 25.1798 131.248 24.3618ZM130.966 32.2316C130.966 32.4855 131.022 32.5983 131.079 32.4855C131.135 32.3162 131.135 32.1188 131.079 31.9495C131.022 31.8649 130.966 31.9777 130.966 32.2316ZM131.079 36.5473C131.079 36.237 131.022 36.4909 131.022 37.0832C131.022 37.732 131.079 37.9859 131.079 37.6756C131.135 37.3653 131.135 36.8858 131.079 36.5473ZM132.096 29.8904C131.927 29.6647 131.39 32.5419 131.305 34.2625L131.192 36.0114L131.362 34.5728C131.475 33.783 131.729 32.4573 131.898 31.5264C132.04 30.7084 132.153 29.9468 132.096 29.8904ZM132.322 32.2034C132.266 32.0341 132.209 32.0906 132.209 32.3726C132.209 32.5983 132.266 32.6829 132.322 32.6265C132.351 32.5137 132.351 32.3444 132.322 32.2034ZM132.746 30.3699C132.69 30.2007 132.633 30.2571 132.577 30.4828C132.577 30.7084 132.633 30.8494 132.69 30.7366C132.803 30.7084 132.803 30.5392 132.746 30.3699ZM132.887 29.3827C132.831 29.2134 132.831 29.3263 132.831 29.6083C132.831 29.9186 132.831 30.0314 132.887 29.8622C133 29.7494 133 29.4673 132.887 29.3827ZM133.368 28.0851C133.368 27.9723 133.311 28.0287 133.198 28.198C133.085 28.3672 132.972 28.6211 132.972 28.7903C133 29.1006 133.368 28.48 133.368 28.0851ZM135.402 20.1589C135.289 20.2717 135.233 20.3846 135.233 20.4692C135.233 20.7795 135.346 20.6948 135.487 20.3564C135.572 20.1589 135.572 20.1025 135.402 20.1589ZM136.617 19.5384C136.617 19.3127 136.137 20.0743 135.967 20.5538C135.741 21.1462 135.967 20.9769 136.335 20.2999C136.533 19.9615 136.617 19.623 136.617 19.5384Z" fill="white"/>
<path d="M151.594 37.8727C151.424 37.1675 151.339 36.6033 151.339 36.5469C151.283 36.5469 150.746 37.3367 150.068 38.4086C148.203 41.455 146.084 43.3449 144.247 43.7398C143.597 43.8526 143.23 43.7398 141.958 43.091C138.595 41.4832 137.522 39.7343 137.578 35.7007C137.578 32.344 138.369 29.213 140.234 25.4333C142.636 20.6945 145.349 18.5789 148.655 18.0994C151.735 17.6763 153.515 19.9047 153.515 19.8482C153.572 19.679 153.741 19.1995 153.826 18.7764C154.306 17.1404 156.228 12.458 157.076 10.7373C157.98 8.87564 159.534 6.42161 160.156 5.74464C160.692 5.15229 161.427 5.15229 161.597 5.63181C161.71 5.85747 161.964 6.11133 162.247 6.28058C162.501 6.39341 162.784 6.70368 162.897 7.01396C163.01 7.5499 162.953 7.71914 160.551 14.2914C158.63 19.3405 157.302 24.5024 156.567 29.2412C156.143 32.1184 156.087 38.1265 156.51 40.0446C156.934 41.9063 157.584 43.1192 158.206 43.4013C158.46 43.5141 158.686 43.6269 158.686 43.7115C158.686 43.8808 157.839 44.5578 157.556 44.5578C157.443 44.5578 156.708 44.2475 155.917 43.8526C153.515 42.7243 152.018 40.637 151.594 37.8727ZM139.358 33.4159C139.302 33.2467 139.245 33.3031 139.245 33.5852C139.245 33.8108 139.245 33.8954 139.358 33.839C139.387 33.7262 139.387 33.5852 139.358 33.4159ZM141.534 28.3668C142.325 26.5616 142.325 26.1949 141.534 27.9437C140.319 30.6516 139.726 32.88 139.556 35.3904L139.387 37.0264L139.697 35.0519C139.867 34.0365 140.178 32.4569 140.404 31.5542C140.686 30.708 141.167 29.2695 141.534 28.3668ZM142.975 26.9847C143.569 25.7153 143.936 24.8691 143.766 25.0666C142.919 26.082 140.573 31.7235 140.63 32.5133C140.686 32.6825 140.941 31.9773 141.28 31.0747C141.591 30.1157 142.325 28.3104 142.975 26.9847ZM152.074 24.9538C152.018 24.8409 151.848 24.1639 151.763 23.4588C151.452 21.2304 151.396 21.174 150.011 21.9074C147.892 22.9792 145.547 25.8846 143.879 29.5797C142.128 33.557 141.478 38.2111 142.382 40.9754C142.551 41.5114 142.749 41.5114 143.823 40.9754C145.631 40.0728 148.514 36.3495 150.633 32.1466C151.113 31.1311 151.368 30.3413 151.481 29.3259C151.537 28.5361 151.735 27.2385 151.904 26.5051C152.074 25.7436 152.131 25.0102 152.074 24.9538ZM153.572 32.4005C153.515 32.0338 153.459 32.2876 153.459 32.9364C153.459 33.6416 153.515 33.9519 153.572 33.6416C153.628 33.3031 153.628 32.7672 153.572 32.4005ZM160.24 9.27054C160.834 8.05763 161.314 7.04217 161.258 6.98576C161.088 6.81651 158.912 11.3579 157.895 13.8965C156.821 16.548 155.719 20.0175 155.182 22.133C154.956 22.8382 154.758 23.628 154.702 23.8255C154.645 24.0793 154.645 24.1357 154.815 24.0511C154.928 23.9383 155.182 23.1485 155.408 22.3023C156.228 18.6635 158.375 12.9375 160.24 9.27054ZM154.702 21.9356C154.702 22.1894 154.758 22.3023 154.815 22.1612C154.872 22.0484 154.872 21.851 154.815 21.6817C154.758 21.4843 154.702 21.6535 154.702 21.9356ZM155.069 20.497C155.069 20.6663 155.239 20.497 155.324 20.0739C155.493 19.7072 155.634 19.2841 155.634 19.0584C155.634 18.8892 155.465 19.1149 155.324 19.4816C155.239 19.8482 155.069 20.3278 155.069 20.497ZM156.284 16.7737C156.284 16.8865 156.341 16.8301 156.454 16.6608C156.567 16.4916 156.68 16.2377 156.68 16.1249C156.68 16.0121 156.567 16.0685 156.454 16.2377C156.341 16.407 156.284 16.6044 156.284 16.7737ZM158.686 14.094C158.686 13.9811 158.63 14.0376 158.517 14.2068C158.347 14.376 158.291 14.5735 158.291 14.6863C158.291 14.8556 158.347 14.7992 158.517 14.6299C158.63 14.4325 158.686 14.2068 158.686 14.094ZM160.127 10.6527C160.127 10.5399 160.014 10.5963 159.901 10.7655C159.788 10.9348 159.675 11.1886 159.675 11.3015C159.675 11.4143 159.788 11.3579 159.901 11.1886C160.014 11.0194 160.127 10.7373 160.127 10.6527ZM161.455 7.60632C161.286 7.83197 161.145 8.08584 161.145 8.19867C161.145 8.45253 161.258 8.36791 161.512 7.71914C161.795 7.23962 161.795 7.23962 161.455 7.60632Z" fill="white"/>
<path d="M162.275 43.317C160.099 41.2297 159.562 33.4163 161.003 25.8568C161.484 23.2899 162.444 20.3846 163.038 19.6794C163.688 18.946 164.366 18.8896 164.846 19.5101C165.016 19.7358 165.157 19.8768 165.157 19.764C165.157 19.6512 165.27 19.7076 165.411 19.8204C165.581 19.9897 165.779 20.0461 165.892 19.9897C166.118 19.8768 166.966 20.582 166.966 20.8359C166.966 20.8923 166.796 21.541 166.655 22.218C165.581 26.6748 164.564 33.2188 164.535 36.0114C164.479 38.409 164.535 40.5245 164.705 40.5245C164.818 40.5245 165.609 39.0295 166.457 37.2243C171.882 25.9978 174.991 20.2435 175.782 19.9897C176.375 19.764 177.647 20.2435 177.901 20.8359C178.155 21.259 178.071 21.4846 176.94 23.2899C175.245 25.9978 172.73 31.1033 169.48 38.409C167.729 42.3862 166.768 44.1068 166.118 44.4171C165.637 44.671 164.903 44.6428 164.422 44.3043C164.196 44.135 163.772 43.994 163.518 43.994C163.179 43.994 162.699 43.7401 162.275 43.317ZM161.992 30.1725C161.936 30.0032 161.879 30.1725 161.879 30.4263C161.879 30.6802 161.936 30.793 161.992 30.6802C162.049 30.5392 162.049 30.3417 161.992 30.1725ZM162.105 38.2679L162.275 34.7138C162.388 32.7393 162.642 29.975 162.868 28.5364C163.123 27.0415 163.518 25.1234 163.716 24.1643C163.942 23.2053 164.083 22.4155 164.027 22.4155C163.914 22.2462 163.123 25.6029 162.699 28.2262C162.388 29.975 162.218 31.9495 162.162 34.5164L162.105 38.2679ZM162.897 31.9213C162.727 32.9932 162.642 35.419 162.727 35.278C162.783 35.2215 162.897 34.2061 162.953 33.0496C163.01 31.611 163.01 31.2443 162.897 31.9213ZM163.236 29.6365C163.179 29.4673 163.123 29.6365 163.123 30.0032C163.123 30.3699 163.179 30.5392 163.236 30.3699C163.264 30.1725 163.264 29.8622 163.236 29.6365ZM163.659 26.6466L163.49 27.2953C163.433 27.6056 163.32 28.1415 163.32 28.5082V29.1006L163.49 28.5082C163.603 28.1415 163.659 27.6056 163.659 27.2953V26.6466ZM163.716 26.3363C163.772 26.5619 163.97 25.6311 164.309 24.4182C164.62 23.2053 164.959 21.9642 165.016 21.7103C165.129 21.3436 165.129 21.2872 164.959 21.4846C164.705 21.8795 163.716 25.9132 163.716 26.3363Z" fill="white"/>
<path d="M176.573 43.317C174.397 41.2297 173.86 33.4163 175.301 25.8568C175.782 23.2899 176.743 20.3846 177.336 19.6794C177.986 18.946 178.664 18.8896 179.144 19.5101C179.314 19.7358 179.455 19.8768 179.455 19.764C179.455 19.6512 179.568 19.7076 179.71 19.8204C179.879 19.9897 180.077 20.0461 180.19 19.9897C180.416 19.8768 181.264 20.582 181.264 20.8359C181.264 20.8923 181.094 21.541 180.953 22.218C179.879 26.6748 178.862 33.2188 178.834 36.0114C178.777 38.409 178.834 40.5245 179.003 40.5245C179.116 40.5245 179.907 39.0295 180.755 37.2243C186.18 25.9978 189.289 20.2435 190.08 19.9897C190.673 19.764 191.945 20.2435 192.199 20.8359C192.454 21.259 192.369 21.4846 191.239 23.2899C189.543 25.9978 187.028 31.1033 183.779 38.409C182.027 42.3862 181.066 44.1068 180.416 44.4171C179.936 44.671 179.201 44.6428 178.721 44.3043C178.495 44.135 178.071 43.994 177.816 43.994C177.477 43.994 176.997 43.7401 176.573 43.317ZM176.29 30.1725C176.234 30.0032 176.177 30.1725 176.177 30.4263C176.177 30.6802 176.234 30.793 176.29 30.6802C176.347 30.5392 176.347 30.3417 176.29 30.1725ZM176.403 38.2679L176.573 34.7138C176.686 32.7393 176.94 29.975 177.166 28.5364C177.421 27.0415 177.816 25.1234 178.014 24.1643C178.24 23.2053 178.381 22.4155 178.325 22.4155C178.212 22.2462 177.421 25.6029 176.997 28.2262C176.686 29.975 176.517 31.9495 176.46 34.5164L176.403 38.2679ZM177.195 31.9213C177.025 32.9932 176.94 35.419 177.025 35.278C177.082 35.2215 177.195 34.2061 177.251 33.0496C177.308 31.611 177.308 31.2443 177.195 31.9213ZM177.534 29.6365C177.477 29.4673 177.421 29.6365 177.421 30.0032C177.421 30.3699 177.477 30.5392 177.534 30.3699C177.59 30.1725 177.59 29.8622 177.534 29.6365ZM177.958 26.6466L177.788 27.2953C177.732 27.6056 177.619 28.1415 177.619 28.5082V29.1006L177.788 28.5082C177.901 28.1415 177.958 27.6056 177.958 27.2953V26.6466ZM178.014 26.3363C178.071 26.5619 178.268 25.6311 178.608 24.4182C178.918 23.2053 179.257 21.9642 179.314 21.7103C179.427 21.3436 179.427 21.2872 179.257 21.4846C179.031 21.8795 178.014 25.9132 178.014 26.3363Z" fill="white"/>
<path d="M211.16 20.3846C211.16 20.6102 210.849 21.7103 210.425 22.8386C207.232 31.7803 206.639 34.2343 206.639 38.1551C206.639 39.7911 206.752 41.5682 206.95 42.5836C207.119 43.5427 207.204 44.3889 207.176 44.5017C207.063 44.7274 206.526 44.671 206.384 44.4453C206.328 44.2761 205.904 44.0786 205.48 43.9094C204.519 43.4863 203.022 41.8785 202.654 40.863C202.541 40.3835 202.4 38.8885 202.287 37.4499L202.174 34.8831L201.044 36.6883C199.546 39.1424 197.738 41.2579 196.72 41.7374C195.76 42.2734 194.545 42.2734 193.895 41.7938C193.64 41.5682 193.16 41.3707 192.877 41.2579C192.086 41.0887 190.899 39.7629 190.419 38.55C189.628 36.4345 189.939 32.429 191.21 28.7057C192.284 25.6311 195.251 21.1462 197.116 19.764C199.716 17.7895 202.344 17.5356 203.898 19.0588C204.604 19.764 205.282 20.2153 205.537 20.2153C205.65 20.2153 206.017 19.7922 206.328 19.3127C207.289 17.7613 208.504 17.3946 209.267 18.4101C209.521 18.7203 209.86 19.0024 210.058 19.0024C210.538 19.0588 211.16 19.8486 211.16 20.3846ZM191.832 34.9677C191.775 34.742 191.719 34.9113 191.719 35.278C191.719 35.7011 191.775 35.8703 191.832 35.6447C191.888 35.4472 191.888 35.1087 191.832 34.9677ZM192.086 33.8958C192.143 33.5855 192.256 33.1906 192.256 33.0496C192.256 32.9086 192.199 32.8804 192.086 33.1624C191.973 33.3881 191.917 33.7548 191.917 33.9522C191.945 34.3189 191.945 34.2625 192.086 33.8958ZM193.217 32.147C193.471 31.0187 194.121 29.3827 194.545 28.48C195.449 26.5055 195.449 26.1953 194.488 28.0005C193.217 30.5674 192.03 34.9677 192.086 37.055C192.086 37.5346 192.199 37.1679 192.397 35.9832C192.567 34.9677 192.877 33.1906 193.217 32.147ZM194.545 30.7084C195.336 28.48 195.703 27.7184 197.116 25.6029C197.709 24.6439 198.133 23.9669 198.02 23.9951C197.653 24.2208 196.042 26.8158 195.308 28.3108C194.403 30.1161 193.669 32.3444 193.217 34.3189C192.736 36.7165 192.849 36.8858 193.443 34.5728C193.64 33.4727 194.177 31.7239 194.545 30.7084ZM204.35 24.3618C204.887 22.754 204.887 22.2745 204.237 22.2745C202.852 22.2745 199.913 25.349 198.105 28.6493C196.551 31.3572 194.686 36.9986 194.686 38.9167V39.7065L195.223 39.3962C195.534 39.1706 196.24 38.4372 196.862 37.7602C199.094 35.1087 203.05 28.7057 203.53 26.9569C203.756 26.3927 204.096 25.1798 204.35 24.3618ZM204.096 32.2316C204.096 32.4855 204.152 32.5983 204.209 32.4855C204.265 32.3162 204.265 32.1188 204.209 31.9495C204.124 31.8649 204.096 31.9777 204.096 32.2316ZM204.18 36.5473C204.18 36.237 204.124 36.4909 204.124 37.0832C204.124 37.732 204.18 37.9859 204.18 37.6756C204.237 37.3653 204.237 36.8858 204.18 36.5473ZM205.198 29.8904C205.028 29.6647 204.491 32.5419 204.406 34.2625L204.293 36.0114L204.463 34.5728C204.576 33.783 204.83 32.4573 205 31.5264C205.141 30.7084 205.254 29.9468 205.198 29.8904ZM205.424 32.2034C205.367 32.0341 205.311 32.0906 205.311 32.3726C205.311 32.5983 205.367 32.6829 205.424 32.6265C205.48 32.5137 205.48 32.3444 205.424 32.2034ZM205.848 30.3699C205.791 30.2007 205.734 30.2571 205.678 30.4828C205.678 30.7084 205.734 30.8494 205.791 30.7366C205.904 30.7084 205.904 30.5392 205.848 30.3699ZM206.017 29.3827C205.961 29.2134 205.961 29.3263 205.961 29.6083C205.961 29.9186 205.961 30.0314 206.017 29.8622C206.102 29.7494 206.102 29.4673 206.017 29.3827ZM206.469 28.0851C206.469 27.9723 206.413 28.0287 206.3 28.198C206.187 28.3672 206.074 28.6211 206.074 28.7903C206.102 29.1006 206.469 28.48 206.469 28.0851ZM208.504 20.1589C208.391 20.2717 208.334 20.3846 208.334 20.4692C208.334 20.7795 208.447 20.6948 208.588 20.3564C208.673 20.1589 208.673 20.1025 208.504 20.1589ZM209.747 19.5384C209.747 19.3127 209.267 20.0743 209.097 20.5538C208.871 21.1462 209.097 20.9769 209.464 20.2999C209.634 19.9615 209.747 19.623 209.747 19.5384Z" fill="white"/>
<path d="M207.119 61.5107C207.599 61.5107 208.447 61.2004 209.238 60.8055C212.488 59.1695 216.048 53.8383 219.1 46.1095C220.117 43.5427 221.982 38.014 221.982 37.5909C221.982 37.4217 221.728 37.7602 221.389 38.2397C221.078 38.7756 220.259 39.8475 219.581 40.6937C217.716 42.9221 216.105 43.5145 214.664 42.5554C214.296 42.3015 213.646 41.9631 213.279 41.822C212.375 41.4553 211.103 39.9039 210.708 38.7474C210.227 37.2525 209.917 34.601 210.058 33.106C210.538 28.6492 212.997 21.5128 214.692 19.905C215.653 18.946 216.19 18.8331 216.783 19.4819C217.037 19.7922 217.376 20.0178 217.489 20.0178C217.602 20.0178 217.659 20.1871 217.602 20.3281C217.489 20.5538 217.602 20.582 217.913 20.4974C218.168 20.4409 218.45 20.5538 218.705 20.8641C218.959 21.1179 219.128 21.4 219.128 21.4564C219.128 21.5128 218.591 23.2053 217.913 25.1798C216.698 29.0159 215.624 32.9085 215.314 35.1933C215.059 36.6319 215.059 39.3398 215.257 40.1014C215.37 40.5245 215.427 40.5245 216.048 40.2706C216.896 39.7911 219.044 37.5063 220.202 35.7011C221.276 34.065 223.621 29.3826 224.356 27.3517C224.61 26.6183 225.062 25.1798 225.26 24.1079C225.486 23.0924 225.741 22.1898 225.854 22.0206C226.023 21.7949 226.39 21.7949 227.125 21.9077C227.182 21.9077 227.238 22.1334 227.238 22.3308C227.238 22.5847 227.351 22.6975 227.464 22.6411C227.577 22.5847 227.69 22.5847 227.69 22.6975C227.69 22.8104 228.001 23.0642 228.425 23.2899C229.64 23.8822 229.979 24.3053 230.064 25.4054C230.233 27.4928 228.623 35.419 226.927 40.5245C225.712 44.2478 223.876 48.7046 222.406 51.8074C219.835 56.8001 216.218 61.1158 213.194 62.7236C211.866 63.4287 209.577 64.1057 209.041 63.9929C208.928 63.9929 208.73 63.8801 208.504 63.8236C208.278 63.7672 207.373 63.457 206.469 63.1185C204.293 62.1876 204.519 61.5671 207.119 61.5107ZM211.979 33.0496C211.923 32.8803 211.866 32.9367 211.866 33.1624C211.866 33.4163 211.923 33.5291 211.979 33.4727C212.036 33.3599 212.036 33.1906 211.979 33.0496ZM212.771 30.0596C213.138 28.5646 213.562 26.985 213.788 26.5055C213.957 25.9696 214.099 25.49 214.042 25.349C214.042 24.6438 212.008 31.5828 212.064 32.3726C212.092 32.57 212.403 31.5546 212.771 30.0596ZM213.986 28.0851C214.409 26.6465 215.059 24.6156 215.483 23.6284C215.907 22.5565 216.218 21.7103 216.19 21.7103C215.964 21.7103 214.635 24.9541 213.901 27.4081C212.997 30.3981 212.46 32.7957 212.46 33.783C212.516 34.1497 212.686 33.5573 212.884 32.5701C213.081 31.4982 213.562 29.4673 213.986 28.0851ZM214.438 28.8467C214.381 28.621 213.477 31.8931 213.533 32.3162C213.533 32.4854 213.76 31.7802 214.014 30.8212C214.268 29.8622 214.466 28.9595 214.438 28.8467ZM215.37 26.1388C215.851 24.8131 216.5 23.0924 216.811 22.4719C217.066 21.8231 217.292 21.3154 217.179 21.3154C216.953 21.3154 215.624 24.5028 215.059 26.3645C214.212 29.1006 214.381 28.9877 215.37 26.1388ZM220.598 50.2842C220.598 50.5945 220.711 50.538 220.852 50.1714C220.909 50.0021 220.909 49.9175 220.739 49.9457C220.654 50.0585 220.598 50.1714 220.598 50.2842ZM220.993 49.579C220.993 49.6918 221.106 49.6354 221.219 49.4662C221.332 49.2405 221.445 49.0431 221.445 48.9302C221.445 48.8174 221.332 48.8738 221.219 49.0431C221.078 49.2123 220.993 49.438 220.993 49.579ZM221.785 47.9994C222.011 47.5763 222.576 46.307 223.056 45.0658C224.667 41.0322 226.136 36.1806 225.995 35.7011C225.995 35.5882 225.882 35.8139 225.769 36.1806C225.458 37.5627 223.65 42.9503 222.632 45.5454C221.361 48.6764 221.248 48.9584 221.785 47.9994ZM222.406 44.1632C222.406 44.276 222.519 44.2196 222.632 44.0504C222.745 43.8811 222.802 43.6837 222.802 43.5709C222.802 43.4016 222.745 43.458 222.632 43.6273C222.519 43.8529 222.406 44.0504 222.406 44.1632ZM222.858 43.2042C222.858 43.5709 223.282 42.4708 224.045 40.1296C224.949 37.4781 225.91 34.0086 226.277 32.1469C226.39 31.611 226.588 30.5391 226.758 29.8057C226.984 29.0724 227.012 28.5928 226.927 28.6492C226.814 28.7621 226.447 30.1442 226.136 31.6956C225.401 34.7702 224.158 39.2552 223.367 41.5964C223.056 42.4144 222.858 43.1478 222.858 43.2042ZM224.186 37.5627C224.243 37.5063 224.243 37.3371 224.186 37.196C224.13 37.0268 224.073 37.0832 224.073 37.3089C224.073 37.5063 224.073 37.6756 224.186 37.5627ZM224.271 36.6037C224.271 36.8293 224.328 36.7729 224.441 36.4909C224.554 36.2652 224.61 35.9549 224.61 35.7575C224.61 35.5882 224.554 35.5882 224.441 35.8703C224.328 36.1242 224.271 36.4344 224.271 36.6037ZM224.667 35.2779C224.723 35.5882 225.26 33.8394 225.26 33.4163C225.26 33.1624 225.091 33.4727 224.949 34.0086C224.752 34.5728 224.667 35.1651 224.667 35.2779ZM225.458 32.5701C225.571 32.3444 225.628 31.9213 225.684 31.6674C225.684 30.934 225.515 31.1879 225.43 32.1469C225.288 32.7111 225.288 32.8803 225.458 32.5701ZM226.193 34.9112C226.136 34.742 226.08 34.7984 226.08 35.0241C226.08 35.2779 226.136 35.3908 226.193 35.3344C226.249 35.2215 226.249 35.0523 226.193 34.9112Z" fill="white"/>
</svg>
