<svg width="231" height="65" viewBox="0 0 231 65" fill="none" xmlns="http://www.w3.org/2000/svg">
<path d="M36.8129 29.2927H22.1757V31.8314H36.8129V29.2927Z" fill="#277EBA"/>
<path d="M36.8129 33.0443H22.1757V36.2035H36.8129V33.0443Z" fill="#277EBA"/>
<path d="M26.2302 31.3295V35.8709H26.9649V31.3295H26.2302Z" fill="#277EBA"/>
<path d="M31.7874 31.598V36.1393H32.7764V31.598H31.7874Z" fill="#277EBA"/>
<path d="M18.3044 53.8048H13.1051C11.3249 53.8048 9.8555 52.3663 9.8555 50.561V14.3993C9.8555 12.6223 11.2966 11.1555 13.1051 11.1555H18.2761V53.8048H18.3044Z" fill="#144F7A"/>
<path d="M19.4629 53.8048H17.5414C15.7612 53.8048 14.2919 52.3663 14.2919 50.561V14.3993C14.2919 12.6223 15.7612 11.1555 17.5414 11.1555H19.4629C21.2431 11.1555 22.7125 12.5941 22.7125 14.3993V50.561C22.7125 52.338 21.2714 53.8048 19.4629 53.8048Z" fill="#277EBA"/>
<path d="M42.3796 47.1197H38.5366C37.4628 47.1197 36.5869 46.2453 36.5869 45.1734V20.4921C36.5869 19.0535 37.7454 17.897 39.1865 17.897H43.9902C44.5554 17.897 45.0075 18.3483 45.0075 18.9125V44.5528C44.9792 45.9632 43.8207 47.1197 42.3796 47.1197Z" fill="#144F7A"/>
<path d="M40.8819 20.5485C40.8819 20.3792 41.0232 18.9124 42.1535 18.2355C42.7469 17.897 43.3968 17.8688 43.6229 17.8688C43.8772 17.8688 44.4423 17.8688 45.0075 18.1791C45.4031 18.4047 45.6574 18.6868 45.8269 18.8842C46.4203 19.6458 49.6417 24.3846 53.9933 30.9287C54.0215 30.9569 54.1911 31.1544 54.2193 31.4364C54.2193 31.7467 54.0498 31.9442 53.9933 31.9724C50.7154 36.824 47.4093 41.6757 44.1315 46.5555C43.9902 46.6401 43.7924 46.7812 43.5381 46.8658C43.2838 46.9504 42.9447 47.0914 42.5208 47.035C42.0405 46.9786 41.7014 46.7248 41.5884 46.6401C40.9667 46.1324 40.9102 45.3426 40.9102 45.2298C40.8819 37.0215 40.8819 28.785 40.8819 20.5485Z" fill="#277EBA"/>
<path d="M54.4736 62.6901H9.60119C5.39086 62.6901 2 59.3053 2 55.1024V9.858C2 5.65513 5.39086 2.27026 9.60119 2.27026H54.5019C58.7122 2.27026 62.1031 5.65513 62.1031 9.858V55.1024C62.0748 59.277 58.6839 62.6901 54.4736 62.6901Z" stroke="#144F7A" stroke-width="2.9535" stroke-miterlimit="10"/>
<path d="M101.607 1.42401C101.607 1.73429 102.398 2.74975 102.398 2.49589C102.398 2.01636 103.189 3.39852 103.189 3.87804C103.189 4.83708 102.172 7.6578 99.6852 13.4685C95.7857 22.3538 94.8815 24.4693 94.8815 24.6385C94.8815 24.7514 95.5879 25.0052 96.4921 25.2309C98.8375 25.7668 99.4874 26.0771 99.7982 26.7823C100.053 27.4311 99.9112 27.7413 99.4874 27.3746C99.2331 27.1208 95.2771 26.5284 94.5424 26.5848C94.0055 26.6977 93.4121 27.967 91.8862 32.4237C90.0777 37.5857 88.3823 45.7375 88.3258 49.2917C88.3258 50.3635 88.2127 50.4482 87.3085 49.884C86.9412 49.6584 86.4043 48.9814 85.9239 47.9095L85.0762 46.3017L85.1327 43.1707C85.1327 38.6575 85.8391 35.1316 87.7324 29.1235C88.1562 27.7978 88.4671 26.7259 88.4388 26.6695C88.2693 26.5566 85.387 26.9233 83.2677 27.3746C81.2897 27.7978 76.2317 29.2927 76.2317 29.4902C76.2317 29.5466 75.9774 30.8159 75.5253 32.3673C74.6776 35.8368 74.3102 38.0088 73.9711 41.5629C73.8016 43.7912 73.8016 44.44 73.9711 44.6939C74.395 45.1734 73.7451 45.2862 72.8408 44.8067C72.1344 44.4964 71.9366 44.1579 71.2867 42.7758C70.3259 40.8013 70.1564 38.996 70.4955 34.6239C70.665 33.0161 70.7215 31.6904 70.7215 31.6339C70.665 31.6339 70.2412 31.7468 69.7608 31.8878C68.9696 32.1417 68.8 32.1417 68.3762 31.8314C68.0088 31.6057 67.9523 31.4083 68.0089 31.1262C68.1219 30.8159 68.0088 30.7031 67.5285 30.5903C67.0481 30.4774 66.5677 30.0543 66.6808 29.7441C66.7373 29.6876 66.6242 29.5748 66.4547 29.5184C65.7483 29.0389 68.0936 27.1772 70.6085 26.2746L71.9366 25.7386L72.4735 23.7641C74.4232 16.3738 79.0009 5.79613 81.2615 3.39852C82.3918 2.24202 83.0134 2.12919 83.7764 2.91899C84.0307 3.22927 84.4263 3.62417 84.6806 3.7088C85.387 4.1319 85.161 5.40123 83.8329 8.75789C83.1265 10.4503 81.9679 13.271 81.2332 15.0481C80.0464 17.9252 77.8706 23.9334 77.8706 24.3001C77.8706 24.3565 78.6618 24.3001 79.6226 24.1308C80.6398 23.9616 83.2395 23.8205 85.4435 23.7641C87.6193 23.6513 89.4278 23.5949 89.4278 23.5949C89.4278 23.341 91.2928 18.3765 92.084 16.5713C94.0055 12.0017 97.9897 4.21653 99.4874 2.21381C100.335 1.05732 101.607 0.577794 101.607 1.42401ZM72.0779 38.8268C72.0214 38.3473 72.0214 38.714 72.0214 39.673C72.0214 40.632 72.0214 40.9987 72.0779 40.5756C72.1344 40.1243 72.1344 39.3063 72.0779 38.8268ZM72.7843 33.6367C73.0104 32.0288 73.1517 30.7031 73.0951 30.6467C72.9256 30.4774 72.1344 35.9214 72.1909 37.0779C72.1909 37.8113 72.2474 37.8677 72.3039 37.3036C72.3605 36.8805 72.5583 35.2727 72.7843 33.6367ZM72.7278 37.7267C72.6713 37.501 72.6148 37.6703 72.6148 38.0934C72.6148 38.4601 72.6713 38.6293 72.7278 38.4037C72.7278 38.2626 72.7278 37.9241 72.7278 37.7267ZM72.8691 36.1189C72.8126 35.8932 72.8126 36.0625 72.8126 36.4292C72.8126 36.8523 72.8126 37.0215 72.8691 36.7959C72.9256 36.5984 72.9256 36.2881 72.8691 36.1189ZM73.0951 34.4829C73.0386 34.2572 72.9821 34.4829 72.9821 34.8496C72.9821 35.2163 73.0386 35.3855 73.0951 35.1598C73.1517 35.0188 73.1517 34.6803 73.0951 34.4829ZM73.8298 30.421C73.6603 30.5903 73.1234 33.2417 73.1799 33.7213C73.1799 34.0316 73.9146 31.0134 73.9146 30.4774C73.9429 30.3646 73.9429 30.3646 73.8298 30.421ZM75.9774 21.1126C77.8989 15.4148 80.1877 9.88618 82.42 5.62689C82.9569 4.66784 83.1547 4.1319 82.9569 4.41398C82.7309 4.66784 81.9962 6.04999 81.318 7.46035C79.0292 12.0299 76.7968 17.615 75.1297 22.8897C73.9994 26.4438 74.5928 25.2027 75.9774 21.1126ZM82.7309 6.58593C83.3808 5.26019 83.8894 4.1319 83.8611 4.07549C83.6351 3.84983 80.1877 11.2119 78.464 15.5558C77.0512 19.1946 75.2144 24.695 75.384 24.695C75.497 24.695 75.6948 24.3283 75.8078 23.8487C76.7686 20.2664 80.3855 11.2119 82.7309 6.58593ZM86.7434 44.1015C86.6869 43.622 86.6303 43.9887 86.6303 44.8349C86.6303 45.7375 86.6869 46.1607 86.7434 45.7375C86.7434 45.3426 86.7434 44.5811 86.7434 44.1015ZM87.2238 40.6885C87.4498 39.3063 87.8737 37.0779 88.1845 35.7522C88.5518 34.4265 89.3148 31.8596 89.9364 30.0543C90.5298 28.2491 91.0667 26.6977 91.0667 26.5848C91.0102 25.8515 89.2583 31.0134 88.2975 34.5111C87.5628 37.219 86.7434 41.5911 86.7999 42.663C86.7999 42.9732 86.9977 42.127 87.2238 40.6885ZM86.9129 39.0524C86.9694 38.996 86.9694 38.7986 86.9129 38.6857C86.8564 38.4601 86.7999 38.5165 86.7999 38.7986C86.7999 38.996 86.8564 39.1088 86.9129 39.0524ZM87.3368 43.3117C87.2803 43.0579 87.2238 43.2553 87.2238 43.7912C87.2238 44.2708 87.2803 44.4964 87.3368 44.2144C87.3933 43.9323 87.3933 43.5656 87.3368 43.3117ZM87.7606 40.6038C87.7606 40.0115 87.4498 41.3372 87.4498 42.0424C87.4498 42.5783 87.4498 42.5219 87.6194 41.8167C87.7041 41.3936 87.7606 40.8577 87.7606 40.6038ZM89.7669 32.2827C89.5408 32.057 87.7889 38.8268 87.7889 39.5602C87.7889 39.814 88.0432 39.0242 88.3258 37.8677C88.5801 36.7112 89.0322 34.9906 89.343 34.0316C89.6256 33.1571 89.8234 32.3391 89.7669 32.2827ZM89.4561 29.1517C89.4561 29.3209 89.5691 29.1517 89.7104 28.7286C89.8799 28.3619 89.9647 27.9388 89.9647 27.826C89.9647 27.7131 89.8517 27.9388 89.7104 28.2491C89.5691 28.5594 89.4561 28.9825 89.4561 29.1517ZM91.3776 27.5439C91.208 27.6567 89.8234 31.5775 89.8234 31.8596C89.8234 32.2263 89.993 31.8596 90.6146 29.9415C90.982 28.8696 91.3493 27.9106 91.4058 27.7131C91.4906 27.5439 91.4341 27.5157 91.3776 27.5439ZM91.4341 23.6795C91.5471 23.5103 91.6601 23.1436 91.7449 22.8897C91.8579 22.523 91.8014 22.4666 91.6884 22.664C91.5754 22.8333 91.4341 23.2 91.3776 23.4538C91.2645 23.8205 91.2645 23.877 91.4341 23.6795ZM91.8579 26.6131C91.8579 26.5002 91.7449 26.5566 91.6319 26.7259C91.5188 26.8951 91.4341 27.1208 91.4341 27.2336C91.4341 27.3464 91.5471 27.29 91.6601 27.1208C91.7449 26.9797 91.8579 26.7541 91.8579 26.6131ZM101.55 2.66513C101.437 2.5523 96.0683 13.5813 94.7402 16.5995C92.8752 20.9152 91.4906 24.5257 91.9144 24.0462C91.971 24.0462 92.4513 22.8897 92.9882 21.5358C94.4859 17.8124 96.2378 13.9198 100.024 6.04999C100.872 4.24473 101.55 2.72154 101.55 2.66513ZM92.0275 22.0717C92.1405 21.9024 92.2818 21.5358 92.3383 21.2255C92.4513 20.9152 92.4513 20.8588 92.2818 21.0562C92.1688 21.2255 92.0557 21.5922 91.971 21.846C91.8579 22.1845 91.9144 22.2973 92.0275 22.0717ZM92.4513 20.5767C92.4513 20.8306 92.7056 20.3511 93.8359 17.6996C94.5424 16.0918 95.7009 13.4967 96.4921 11.8607C97.2833 10.1682 97.9332 8.78609 97.8767 8.72968C97.7072 8.56044 92.4513 20.069 92.4513 20.5767ZM94.4576 19.6177C94.4576 19.5613 94.3446 19.6741 94.2315 19.9279C93.8642 20.5203 92.6209 23.7077 92.6209 23.9616C92.6209 24.0744 93.0447 23.1718 93.5816 21.9307C94.0903 20.746 94.4576 19.6741 94.4576 19.6177ZM94.9097 18.715C94.9097 18.6022 94.7967 18.6586 94.6837 18.8279C94.5706 18.9971 94.5141 19.1946 94.5141 19.3074C94.5141 19.4202 94.5706 19.3638 94.6837 19.1946C94.7967 19.0535 94.9097 18.8279 94.9097 18.715ZM95.4748 17.2765C95.4748 17.1636 95.4183 17.2201 95.3053 17.3893C95.1923 17.5585 95.0793 17.756 95.0793 17.9252C95.0793 18.0381 95.1923 17.9816 95.3053 17.8124C95.4183 17.6714 95.4748 17.3893 95.4748 17.2765ZM96.7182 14.6814C96.7182 14.5122 96.5486 14.7942 96.3508 15.1609C96.1248 15.5276 95.927 15.9507 95.927 16.0636C95.927 16.1764 96.153 15.9507 96.3508 15.584C96.5486 15.1609 96.7182 14.7942 96.7182 14.6814ZM99.6287 5.20378C99.6852 5.20378 99.8547 5.03453 99.9395 4.83708C100.109 4.61143 100.166 4.41398 100.109 4.41398C100.053 4.41398 99.883 4.63963 99.7982 4.83708C99.6287 5.06274 99.6004 5.20378 99.6287 5.20378ZM100.166 4.04728C100.166 4.30115 100.335 4.27294 100.42 3.87804C100.533 3.7088 100.476 3.62417 100.363 3.7088C100.279 3.76521 100.166 3.93445 100.166 4.04728Z" fill="#145883"/>
<path d="M112.966 20.9152C113.503 21.3947 113.983 21.705 114.04 21.705C114.096 21.705 114.351 22.0153 114.633 22.4102C115.961 24.3283 114.04 29.6594 111.158 32.1981C108.643 34.3701 106.41 34.765 103.895 33.3828C103.585 33.1571 102.822 36.2035 102.737 38.178C102.624 40.0961 102.68 40.4628 103.048 41.309L103.472 42.2681L104.687 42.2117C106.552 42.0424 108.897 40.8295 110.762 38.9678C111.553 38.1216 112.627 36.8523 113.164 36.0907C113.757 35.1881 114.181 34.765 114.379 34.8778C115.99 35.4701 111.016 42.6912 108.049 44.1297C107.569 44.3836 106.721 44.5529 105.817 44.6093C104.489 44.6657 104.319 44.6657 102.737 43.7631C100.815 42.6348 99.4874 41.4219 98.8375 40.1525C97.0855 36.4856 98.5266 30.1954 102.313 25.513C104.489 22.8051 106.693 21.0845 109.18 20.3511C110.875 19.7869 111.694 19.8998 112.966 20.9152ZM99.9677 34.4829C99.9112 34.3136 99.8547 34.3701 99.8547 34.5957C99.8547 34.8214 99.9112 34.906 99.9677 34.8496C100.024 34.7932 100.053 34.6239 99.9677 34.4829ZM100.279 33.5803C100.335 33.3546 100.448 33.0443 100.448 32.8751C100.448 32.6494 100.392 32.7058 100.279 32.9879C100.166 33.2136 100.053 33.5238 100.053 33.6931C100.053 33.8905 100.109 33.8341 100.279 33.5803ZM100.392 35.6958C100.561 34.9906 100.872 33.7213 101.126 32.8751C101.663 31.2391 101.663 30.7595 101.183 31.9724C100.759 32.9879 100.335 34.7932 100.166 36.0061C100.053 36.9651 100.109 36.9087 100.392 35.6958ZM101.183 34.6803C101.126 34.5111 101.07 34.5111 101.07 34.7932C101.07 35.0188 101.126 35.1034 101.183 35.047C101.239 35.0188 101.239 34.7932 101.183 34.6803ZM101.409 33.7213C101.296 34.2572 101.352 34.1444 101.663 33.411C101.889 32.8187 102.031 32.2545 102.031 32.0853C102.087 31.6057 101.55 32.9315 101.409 33.7213ZM102.793 28.8414C102.737 28.8414 102.624 29.0107 102.483 29.2081C102.37 29.462 102.313 29.6312 102.37 29.6312C102.426 29.6312 102.596 29.462 102.68 29.2081C102.793 28.9825 102.85 28.8414 102.793 28.8414ZM104.263 27.7696C103.952 28.0234 102.765 30.0544 102.935 30.0544C102.991 30.0544 103.359 29.462 103.782 28.785C104.235 28.0798 104.432 27.6567 104.263 27.7696ZM107.428 27.2336C106.241 28.785 104.545 31.3801 104.545 31.6904C104.545 32.0571 106.156 31.8032 107.258 31.2673C108.812 30.5621 110.338 28.9261 111.299 27.008C111.949 25.6822 112.57 23.4539 112.373 23.1718C112.005 22.8333 109.067 25.2027 107.428 27.2336ZM104.545 27.3465C104.545 27.5157 104.715 27.4029 104.969 27.0362C105.195 26.7259 105.195 26.7259 104.856 26.9798C104.715 27.1208 104.545 27.29 104.545 27.3465ZM112.429 27.6003C112.203 28.0798 112.203 28.0798 112.542 27.7132C112.712 27.4875 112.853 27.2336 112.853 27.1208C112.853 26.8669 112.74 26.9798 112.429 27.6003Z" fill="#145883"/>
<path d="M138.058 20.3793C138.058 20.6049 137.748 21.705 137.324 22.8333C134.131 31.7468 133.537 34.2008 133.537 38.1498C133.537 39.7858 133.65 41.5629 133.848 42.5783C134.018 43.5374 134.102 44.3836 134.074 44.4964C133.961 44.7221 133.424 44.6657 133.283 44.44C133.226 44.2708 132.803 44.0733 132.379 43.9041C131.418 43.481 129.92 41.8732 129.553 40.8577C129.44 40.3782 129.299 38.8832 129.186 37.4446L129.073 34.8778L127.942 36.683C126.445 39.1371 124.636 41.2526 123.619 41.7321C122.658 42.2681 121.443 42.2681 120.793 41.7885C120.539 41.5629 120.059 41.3654 119.776 41.2526C118.985 41.0834 117.798 39.7576 117.318 38.5447C116.526 36.4292 116.837 32.4237 118.109 28.7004C119.183 25.6258 122.15 21.1409 124.015 19.7587C126.614 17.7842 129.242 17.5303 130.796 19.0535C131.503 19.7587 132.181 20.21 132.435 20.21C132.548 20.21 132.916 19.7869 133.226 19.3074C134.187 17.756 135.402 17.3893 136.165 18.4048C136.42 18.715 136.759 18.9971 136.956 18.9971C137.437 19.0535 138.058 19.8433 138.058 20.3793ZM118.731 34.9624C118.674 34.7367 118.618 34.906 118.618 35.2727C118.618 35.6958 118.674 35.865 118.731 35.6394C118.759 35.4419 118.759 35.1034 118.731 34.9624ZM118.985 33.8905C119.041 33.5802 119.154 33.1853 119.154 33.0443C119.154 32.9033 119.098 32.8751 118.985 33.1571C118.872 33.3828 118.815 33.7495 118.815 33.9469C118.815 34.3136 118.815 34.2572 118.985 33.8905ZM120.115 32.1417C120.369 31.0134 121.019 29.3774 121.443 28.4747C122.347 26.5002 122.347 26.1899 121.387 27.9952C120.115 30.5621 118.928 34.9624 118.985 37.0497C118.985 37.5292 119.098 37.1626 119.296 35.9778C119.465 34.9624 119.776 33.1853 120.115 32.1417ZM121.443 30.7031C122.234 28.4747 122.602 27.7131 124.015 25.5976C124.608 24.6385 125.032 23.9616 124.919 23.9898C124.552 24.2154 122.941 26.8105 122.206 28.3055C121.302 30.1107 120.567 32.3391 120.115 34.3136C119.635 36.7112 119.748 36.8805 120.341 34.5675C120.539 33.4674 121.076 31.7186 121.443 30.7031ZM131.248 24.3565C131.785 22.7487 131.785 22.2691 131.135 22.2691C129.751 22.2691 126.812 25.3437 125.004 28.644C123.45 31.3519 121.585 36.9933 121.585 38.9114V39.7012L122.121 39.3909C122.432 39.1653 123.139 38.4319 123.76 37.7549C125.993 35.1034 129.949 28.7004 130.429 26.9515C130.655 26.3874 130.966 25.1745 131.248 24.3565ZM130.966 32.2263C130.966 32.4802 131.022 32.593 131.079 32.4802C131.135 32.3109 131.135 32.1135 131.079 31.9442C131.022 31.8596 130.966 31.9724 130.966 32.2263ZM131.079 36.542C131.079 36.2317 131.022 36.4856 131.022 37.0779C131.022 37.7267 131.079 37.9806 131.079 37.6703C131.135 37.36 131.135 36.8805 131.079 36.542ZM132.096 29.8851C131.927 29.6594 131.39 32.5366 131.305 34.2572L131.192 36.0061L131.362 34.5675C131.475 33.7777 131.729 32.4519 131.898 31.5211C132.04 30.7031 132.153 29.9415 132.096 29.8851ZM132.322 32.1981C132.266 32.0288 132.209 32.0853 132.209 32.3673C132.209 32.593 132.266 32.6776 132.322 32.6212C132.351 32.5084 132.351 32.3391 132.322 32.1981ZM132.746 30.3646C132.69 30.1954 132.633 30.2518 132.577 30.4774C132.577 30.7031 132.633 30.8441 132.69 30.7313C132.803 30.7031 132.803 30.5339 132.746 30.3646ZM132.887 29.3774C132.831 29.2081 132.831 29.3209 132.831 29.603C132.831 29.9133 132.831 30.0261 132.887 29.8569C133 29.7441 133 29.462 132.887 29.3774ZM133.368 28.0798C133.368 27.967 133.311 28.0234 133.198 28.1927C133.085 28.3619 132.972 28.6158 132.972 28.785C133 29.0953 133.368 28.4747 133.368 28.0798ZM135.402 20.1536C135.289 20.2664 135.233 20.3793 135.233 20.4639C135.233 20.7742 135.346 20.6895 135.487 20.3511C135.572 20.1536 135.572 20.0972 135.402 20.1536ZM136.617 19.533C136.617 19.3074 136.137 20.069 135.967 20.5485C135.741 21.1409 135.967 20.9716 136.335 20.2946C136.533 19.9562 136.617 19.6177 136.617 19.533Z" fill="#145883"/>
<path d="M151.594 37.8676C151.424 37.1625 151.339 36.5983 151.339 36.5419C151.283 36.5419 150.746 37.3317 150.068 38.4036C148.203 41.45 146.084 43.3398 144.247 43.7347C143.597 43.8476 143.23 43.7347 141.958 43.086C138.595 41.4782 137.522 39.7293 137.578 35.6957C137.578 32.339 138.369 29.208 140.234 25.4283C142.636 20.6895 145.349 18.5739 148.655 18.0944C151.735 17.6713 153.515 19.8997 153.515 19.8432C153.572 19.674 153.741 19.1945 153.826 18.7714C154.306 17.1353 156.228 12.453 157.076 10.7323C157.98 8.87063 159.534 6.41661 160.156 5.73963C160.692 5.14728 161.427 5.14728 161.597 5.62681C161.71 5.85246 161.964 6.10633 162.247 6.27557C162.501 6.3884 162.784 6.69868 162.897 7.00896C163.01 7.5449 162.953 7.71414 160.551 14.2864C158.63 19.3355 157.302 24.4974 156.567 29.2362C156.143 32.1134 156.087 38.1215 156.51 40.0396C156.934 41.9013 157.584 43.1142 158.206 43.3963C158.46 43.5091 158.686 43.6219 158.686 43.7065C158.686 43.8758 157.839 44.5528 157.556 44.5528C157.443 44.5528 156.708 44.2425 155.917 43.8476C153.515 42.7193 152.018 40.632 151.594 37.8676ZM139.358 33.4109C139.302 33.2417 139.245 33.2981 139.245 33.5802C139.245 33.8058 139.245 33.8904 139.358 33.834C139.387 33.7212 139.387 33.5802 139.358 33.4109ZM141.534 28.3618C142.325 26.5566 142.325 26.1899 141.534 27.9387C140.319 30.6466 139.726 32.875 139.556 35.3854L139.387 37.0214L139.697 35.0469C139.867 34.0315 140.178 32.4519 140.404 31.5492C140.686 30.703 141.167 29.2645 141.534 28.3618ZM142.975 26.9797C143.569 25.7103 143.936 24.8641 143.766 25.0616C142.919 26.077 140.573 31.7185 140.63 32.5083C140.686 32.6775 140.941 31.9723 141.28 31.0697C141.591 30.1107 142.325 28.3054 142.975 26.9797ZM152.074 24.9487C152.018 24.8359 151.848 24.1589 151.763 23.4538C151.452 21.2254 151.396 21.169 150.011 21.9024C147.892 22.9742 145.547 25.8796 143.879 29.5747C142.128 33.5519 141.478 38.2061 142.382 40.9704C142.551 41.5064 142.749 41.5064 143.823 40.9704C145.631 40.0678 148.514 36.3445 150.633 32.1416C151.113 31.1261 151.368 30.3363 151.481 29.3209C151.537 28.5311 151.735 27.2335 151.904 26.5001C152.074 25.7385 152.131 25.0052 152.074 24.9487ZM153.572 32.3955C153.515 32.0288 153.459 32.2826 153.459 32.9314C153.459 33.6366 153.515 33.9468 153.572 33.6366C153.628 33.2981 153.628 32.7621 153.572 32.3955ZM160.24 9.26554C160.834 8.05263 161.314 7.03717 161.258 6.98075C161.088 6.81151 158.912 11.3529 157.895 13.8915C156.821 16.543 155.719 20.0125 155.182 22.128C154.956 22.8332 154.758 23.623 154.702 23.8205C154.645 24.0743 154.645 24.1307 154.815 24.0461C154.928 23.9333 155.182 23.1435 155.408 22.2973C156.228 18.6585 158.375 12.9325 160.24 9.26554ZM154.702 21.9306C154.702 22.1844 154.758 22.2973 154.815 22.1562C154.872 22.0434 154.872 21.846 154.815 21.6767C154.758 21.4793 154.702 21.6485 154.702 21.9306ZM155.069 20.492C155.069 20.6613 155.239 20.492 155.324 20.0689C155.493 19.7022 155.634 19.2791 155.634 19.0534C155.634 18.8842 155.465 19.1099 155.324 19.4765C155.239 19.8432 155.069 20.3228 155.069 20.492ZM156.284 16.7687C156.284 16.8815 156.341 16.8251 156.454 16.6558C156.567 16.4866 156.68 16.2327 156.68 16.1199C156.68 16.0071 156.567 16.0635 156.454 16.2327C156.341 16.402 156.284 16.5994 156.284 16.7687ZM158.686 14.089C158.686 13.9761 158.63 14.0326 158.517 14.2018C158.347 14.371 158.291 14.5685 158.291 14.6813C158.291 14.8506 158.347 14.7941 158.517 14.6249C158.63 14.4275 158.686 14.2018 158.686 14.089ZM160.127 10.6477C160.127 10.5349 160.014 10.5913 159.901 10.7605C159.788 10.9298 159.675 11.1836 159.675 11.2965C159.675 11.4093 159.788 11.3529 159.901 11.1836C160.014 11.0144 160.127 10.7323 160.127 10.6477ZM161.455 7.60131C161.286 7.82697 161.145 8.08083 161.145 8.19366C161.145 8.44753 161.258 8.3629 161.512 7.71414C161.795 7.23462 161.795 7.23462 161.455 7.60131Z" fill="#145883"/>
<path d="M162.275 43.3117C160.099 41.2244 159.562 33.411 161.003 25.8514C161.484 23.2846 162.444 20.3792 163.038 19.6741C163.688 18.9407 164.366 18.8843 164.846 19.5048C165.016 19.7305 165.157 19.8715 165.157 19.7587C165.157 19.6459 165.27 19.7023 165.411 19.8151C165.581 19.9843 165.779 20.0408 165.892 19.9843C166.118 19.8715 166.966 20.5767 166.966 20.8306C166.966 20.887 166.796 21.5357 166.655 22.2127C165.581 26.6695 164.564 33.2135 164.535 36.006C164.479 38.4037 164.535 40.5192 164.705 40.5192C164.818 40.5192 165.609 39.0242 166.457 37.2189C171.882 25.9925 174.991 20.2382 175.782 19.9843C176.375 19.7587 177.647 20.2382 177.901 20.8306C178.155 21.2537 178.071 21.4793 176.94 23.2846C175.245 25.9925 172.73 31.098 169.48 38.4037C167.729 42.3809 166.768 44.1015 166.118 44.4118C165.637 44.6657 164.903 44.6374 164.422 44.299C164.196 44.1297 163.772 43.9887 163.518 43.9887C163.179 43.9887 162.699 43.7348 162.275 43.3117ZM161.992 30.1671C161.936 29.9979 161.879 30.1671 161.879 30.421C161.879 30.6749 161.936 30.7877 161.992 30.6749C162.049 30.5338 162.049 30.3364 161.992 30.1671ZM162.105 38.2626L162.275 34.7085C162.388 32.734 162.642 29.9697 162.868 28.5311C163.123 27.0361 163.518 25.1181 163.716 24.159C163.942 23.2 164.083 22.4102 164.027 22.4102C163.914 22.2409 163.123 25.5976 162.699 28.2208C162.388 29.9697 162.218 31.9442 162.162 34.5111L162.105 38.2626ZM162.897 31.916C162.727 32.9879 162.642 35.4137 162.727 35.2727C162.783 35.2162 162.897 34.2008 162.953 33.0443C163.01 31.6057 163.01 31.239 162.897 31.916ZM163.236 29.6312C163.179 29.462 163.123 29.6312 163.123 29.9979C163.123 30.3646 163.179 30.5338 163.236 30.3646C163.264 30.1671 163.264 29.8569 163.236 29.6312ZM163.659 26.6412L163.49 27.29C163.433 27.6003 163.32 28.1362 163.32 28.5029V29.0953L163.49 28.5029C163.603 28.1362 163.659 27.6003 163.659 27.29V26.6412ZM163.716 26.331C163.772 26.5566 163.97 25.6258 164.309 24.4129C164.62 23.2 164.959 21.9588 165.016 21.705C165.129 21.3383 165.129 21.2819 164.959 21.4793C164.705 21.8742 163.716 25.9079 163.716 26.331Z" fill="#145883"/>
<path d="M176.573 43.3117C174.397 41.2244 173.86 33.411 175.301 25.8514C175.782 23.2846 176.743 20.3792 177.336 19.6741C177.986 18.9407 178.664 18.8843 179.144 19.5048C179.314 19.7305 179.455 19.8715 179.455 19.7587C179.455 19.6459 179.568 19.7023 179.71 19.8151C179.879 19.9843 180.077 20.0408 180.19 19.9843C180.416 19.8715 181.264 20.5767 181.264 20.8306C181.264 20.887 181.094 21.5357 180.953 22.2127C179.879 26.6695 178.862 33.2135 178.834 36.006C178.777 38.4037 178.834 40.5192 179.003 40.5192C179.116 40.5192 179.907 39.0242 180.755 37.2189C186.18 25.9925 189.289 20.2382 190.08 19.9843C190.673 19.7587 191.945 20.2382 192.199 20.8306C192.454 21.2537 192.369 21.4793 191.239 23.2846C189.543 25.9925 187.028 31.098 183.779 38.4037C182.027 42.3809 181.066 44.1015 180.416 44.4118C179.936 44.6657 179.201 44.6374 178.721 44.299C178.495 44.1297 178.071 43.9887 177.816 43.9887C177.477 43.9887 176.997 43.7348 176.573 43.3117ZM176.29 30.1671C176.234 29.9979 176.177 30.1671 176.177 30.421C176.177 30.6749 176.234 30.7877 176.29 30.6749C176.347 30.5338 176.347 30.3364 176.29 30.1671ZM176.403 38.2626L176.573 34.7085C176.686 32.734 176.94 29.9697 177.166 28.5311C177.421 27.0361 177.816 25.1181 178.014 24.159C178.24 23.2 178.381 22.4102 178.325 22.4102C178.212 22.2409 177.421 25.5976 176.997 28.2208C176.686 29.9697 176.517 31.9442 176.46 34.5111L176.403 38.2626ZM177.195 31.916C177.025 32.9879 176.94 35.4137 177.025 35.2727C177.082 35.2162 177.195 34.2008 177.251 33.0443C177.308 31.6057 177.308 31.239 177.195 31.916ZM177.534 29.6312C177.477 29.462 177.421 29.6312 177.421 29.9979C177.421 30.3646 177.477 30.5338 177.534 30.3646C177.59 30.1671 177.59 29.8569 177.534 29.6312ZM177.958 26.6412L177.788 27.29C177.732 27.6003 177.619 28.1362 177.619 28.5029V29.0953L177.788 28.5029C177.901 28.1362 177.958 27.6003 177.958 27.29V26.6412ZM178.014 26.331C178.071 26.5566 178.268 25.6258 178.608 24.4129C178.918 23.2 179.257 21.9588 179.314 21.705C179.427 21.3383 179.427 21.2819 179.257 21.4793C179.031 21.8742 178.014 25.9079 178.014 26.331Z" fill="#145883"/>
<path d="M211.16 20.3793C211.16 20.6049 210.849 21.705 210.425 22.8333C207.232 31.775 206.639 34.229 206.639 38.1498C206.639 39.7858 206.752 41.5629 206.95 42.5783C207.119 43.5374 207.204 44.3836 207.176 44.4964C207.063 44.7221 206.526 44.6657 206.384 44.44C206.328 44.2708 205.904 44.0733 205.48 43.9041C204.519 43.481 203.022 41.8732 202.654 40.8577C202.541 40.3782 202.4 38.8832 202.287 37.4446L202.174 34.8778L201.044 36.683C199.546 39.1371 197.738 41.2526 196.72 41.7321C195.76 42.2681 194.545 42.2681 193.895 41.7885C193.64 41.5629 193.16 41.3654 192.877 41.2526C192.086 41.0834 190.899 39.7576 190.419 38.5447C189.628 36.4292 189.939 32.4237 191.21 28.7004C192.284 25.6258 195.251 21.1409 197.116 19.7587C199.716 17.7842 202.344 17.5303 203.898 19.0535C204.604 19.7587 205.282 20.21 205.537 20.21C205.65 20.21 206.017 19.7869 206.328 19.3074C207.289 17.756 208.504 17.3893 209.267 18.4048C209.521 18.715 209.86 18.9971 210.058 18.9971C210.538 19.0535 211.16 19.8433 211.16 20.3793ZM191.832 34.9624C191.775 34.7367 191.719 34.906 191.719 35.2727C191.719 35.6958 191.775 35.865 191.832 35.6394C191.888 35.4419 191.888 35.1034 191.832 34.9624ZM192.086 33.8905C192.143 33.5802 192.256 33.1853 192.256 33.0443C192.256 32.9033 192.199 32.8751 192.086 33.1571C191.973 33.3828 191.917 33.7495 191.917 33.9469C191.945 34.3136 191.945 34.2572 192.086 33.8905ZM193.217 32.1417C193.471 31.0134 194.121 29.3774 194.545 28.4747C195.449 26.5002 195.449 26.1899 194.488 27.9952C193.217 30.5621 192.03 34.9624 192.086 37.0497C192.086 37.5292 192.199 37.1626 192.397 35.9778C192.567 34.9624 192.877 33.1853 193.217 32.1417ZM194.545 30.7031C195.336 28.4747 195.703 27.7131 197.116 25.5976C197.709 24.6385 198.133 23.9616 198.02 23.9898C197.653 24.2154 196.042 26.8105 195.308 28.3055C194.403 30.1107 193.669 32.3391 193.217 34.3136C192.736 36.7112 192.849 36.8805 193.443 34.5675C193.64 33.4674 194.177 31.7186 194.545 30.7031ZM204.35 24.3565C204.887 22.7487 204.887 22.2691 204.237 22.2691C202.852 22.2691 199.913 25.3437 198.105 28.644C196.551 31.3519 194.686 36.9933 194.686 38.9114V39.7012L195.223 39.3909C195.534 39.1653 196.24 38.4319 196.862 37.7549C199.094 35.1034 203.05 28.7004 203.53 26.9515C203.756 26.3874 204.096 25.1745 204.35 24.3565ZM204.096 32.2263C204.096 32.4802 204.152 32.593 204.209 32.4802C204.265 32.3109 204.265 32.1135 204.209 31.9442C204.124 31.8596 204.096 31.9724 204.096 32.2263ZM204.18 36.542C204.18 36.2317 204.124 36.4856 204.124 37.0779C204.124 37.7267 204.18 37.9806 204.18 37.6703C204.237 37.36 204.237 36.8805 204.18 36.542ZM205.198 29.8851C205.028 29.6594 204.491 32.5366 204.406 34.2572L204.293 36.0061L204.463 34.5675C204.576 33.7777 204.83 32.4519 205 31.5211C205.141 30.7031 205.254 29.9415 205.198 29.8851ZM205.424 32.1981C205.367 32.0288 205.311 32.0853 205.311 32.3673C205.311 32.593 205.367 32.6776 205.424 32.6212C205.48 32.5084 205.48 32.3391 205.424 32.1981ZM205.848 30.3646C205.791 30.1954 205.734 30.2518 205.678 30.4774C205.678 30.7031 205.734 30.8441 205.791 30.7313C205.904 30.7031 205.904 30.5339 205.848 30.3646ZM206.017 29.3774C205.961 29.2081 205.961 29.3209 205.961 29.603C205.961 29.9133 205.961 30.0261 206.017 29.8569C206.102 29.7441 206.102 29.462 206.017 29.3774ZM206.469 28.0798C206.469 27.967 206.413 28.0234 206.3 28.1927C206.187 28.3619 206.074 28.6158 206.074 28.785C206.102 29.0953 206.469 28.4747 206.469 28.0798ZM208.504 20.1536C208.391 20.2664 208.334 20.3793 208.334 20.4639C208.334 20.7742 208.447 20.6895 208.588 20.3511C208.673 20.1536 208.673 20.0972 208.504 20.1536ZM209.747 19.533C209.747 19.3074 209.267 20.069 209.097 20.5485C208.871 21.1409 209.097 20.9716 209.464 20.2946C209.634 19.9562 209.747 19.6177 209.747 19.533Z" fill="#145883"/>
<path d="M207.119 61.5053C207.599 61.5053 208.447 61.1951 209.238 60.8002C212.488 59.1641 216.048 53.833 219.1 46.1042C220.117 43.5373 221.982 38.0087 221.982 37.5856C221.982 37.4164 221.728 37.7549 221.389 38.2344C221.078 38.7703 220.259 39.8422 219.581 40.6884C217.716 42.9168 216.105 43.5091 214.664 42.5501C214.296 42.2962 213.646 41.9577 213.279 41.8167C212.375 41.45 211.103 39.8986 210.708 38.7421C210.227 37.2471 209.917 34.5957 210.058 33.1007C210.538 28.6439 212.997 21.5075 214.692 19.8997C215.653 18.9407 216.19 18.8278 216.783 19.4766C217.037 19.7869 217.376 20.0125 217.489 20.0125C217.602 20.0125 217.659 20.1818 217.602 20.3228C217.489 20.5485 217.602 20.5767 217.913 20.4921C218.168 20.4356 218.45 20.5485 218.705 20.8587C218.959 21.1126 219.128 21.3947 219.128 21.4511C219.128 21.5075 218.591 23.1999 217.913 25.1744C216.698 29.0106 215.624 32.9032 215.314 35.188C215.059 36.6266 215.059 39.3345 215.257 40.0961C215.37 40.5192 215.427 40.5192 216.048 40.2653C216.896 39.7858 219.044 37.501 220.202 35.6957C221.276 34.0597 223.621 29.3773 224.356 27.3464C224.61 26.613 225.062 25.1745 225.26 24.1026C225.486 23.0871 225.741 22.1845 225.854 22.0152C226.023 21.7896 226.39 21.7896 227.125 21.9024C227.182 21.9024 227.238 22.1281 227.238 22.3255C227.238 22.5794 227.351 22.6922 227.464 22.6358C227.577 22.5794 227.69 22.5794 227.69 22.6922C227.69 22.805 228.001 23.0589 228.425 23.2846C229.64 23.8769 229.979 24.3 230.064 25.4001C230.233 27.4874 228.623 35.4137 226.927 40.5192C225.712 44.2425 223.876 48.6993 222.406 51.8021C219.835 56.7947 216.218 61.1104 213.194 62.7183C211.866 63.4234 209.577 64.1004 209.041 63.9876C208.928 63.9876 208.73 63.8747 208.504 63.8183C208.278 63.7619 207.373 63.4516 206.469 63.1132C204.293 62.1823 204.519 61.5618 207.119 61.5053ZM211.979 33.0443C211.923 32.875 211.866 32.9314 211.866 33.1571C211.866 33.411 211.923 33.5238 211.979 33.4674C212.036 33.3545 212.036 33.1853 211.979 33.0443ZM212.771 30.0543C213.138 28.5593 213.562 26.9797 213.788 26.5002C213.957 25.9643 214.099 25.4847 214.042 25.3437C214.042 24.6385 212.008 31.5775 212.064 32.3673C212.092 32.5647 212.403 31.5493 212.771 30.0543ZM213.986 28.0798C214.409 26.6412 215.059 24.6103 215.483 23.6231C215.907 22.5512 216.218 21.705 216.19 21.705C215.964 21.705 214.635 24.9488 213.901 27.4028C212.997 30.3928 212.46 32.7904 212.46 33.7776C212.516 34.1443 212.686 33.552 212.884 32.5647C213.081 31.4929 213.562 29.4619 213.986 28.0798ZM214.438 28.8414C214.381 28.6157 213.477 31.8878 213.533 32.3109C213.533 32.4801 213.76 31.7749 214.014 30.8159C214.268 29.8568 214.466 28.9542 214.438 28.8414ZM215.37 26.1335C215.851 24.8078 216.5 23.0871 216.811 22.4666C217.066 21.8178 217.292 21.3101 217.179 21.3101C216.953 21.3101 215.624 24.4975 215.059 26.3592C214.212 29.0953 214.381 28.9824 215.37 26.1335ZM220.598 50.2789C220.598 50.5892 220.711 50.5327 220.852 50.166C220.909 49.9968 220.909 49.9122 220.739 49.9404C220.654 50.0532 220.598 50.166 220.598 50.2789ZM220.993 49.5737C220.993 49.6865 221.106 49.6301 221.219 49.4609C221.332 49.2352 221.445 49.0378 221.445 48.9249C221.445 48.8121 221.332 48.8685 221.219 49.0378C221.078 49.207 220.993 49.4327 220.993 49.5737ZM221.785 47.9941C222.011 47.571 222.576 46.3017 223.056 45.0605C224.667 41.0269 226.136 36.1753 225.995 35.6957C225.995 35.5829 225.882 35.8086 225.769 36.1753C225.458 37.5574 223.65 42.945 222.632 45.5401C221.361 48.6711 221.248 48.9531 221.785 47.9941ZM222.406 44.1579C222.406 44.2707 222.519 44.2143 222.632 44.0451C222.745 43.8758 222.802 43.6784 222.802 43.5656C222.802 43.3963 222.745 43.4527 222.632 43.622C222.519 43.8476 222.406 44.0451 222.406 44.1579ZM222.858 43.1989C222.858 43.5656 223.282 42.4655 224.045 40.1243C224.949 37.4728 225.91 34.0033 226.277 32.1416C226.39 31.6057 226.588 30.5338 226.758 29.8004C226.984 29.067 227.012 28.5875 226.927 28.6439C226.814 28.7568 226.447 30.1389 226.136 31.6903C225.401 34.7649 224.158 39.2498 223.367 41.591C223.056 42.4091 222.858 43.1424 222.858 43.1989ZM224.186 37.5574C224.243 37.501 224.243 37.3318 224.186 37.1907C224.13 37.0215 224.073 37.0779 224.073 37.3036C224.073 37.501 224.073 37.6702 224.186 37.5574ZM224.271 36.5984C224.271 36.824 224.328 36.7676 224.441 36.4855C224.554 36.2599 224.61 35.9496 224.61 35.7522C224.61 35.5829 224.554 35.5829 224.441 35.865C224.328 36.1188 224.271 36.4291 224.271 36.5984ZM224.667 35.2726C224.723 35.5829 225.26 33.8341 225.26 33.411C225.26 33.1571 225.091 33.4674 224.949 34.0033C224.752 34.5675 224.667 35.1598 224.667 35.2726ZM225.458 32.5647C225.571 32.3391 225.628 31.916 225.684 31.6621C225.684 30.9287 225.515 31.1826 225.43 32.1416C225.288 32.7058 225.288 32.875 225.458 32.5647ZM226.193 34.9059C226.136 34.7367 226.08 34.7931 226.08 35.0188C226.08 35.2726 226.136 35.3855 226.193 35.329C226.249 35.2162 226.249 35.047 226.193 34.9059Z" fill="#145883"/>
</svg>
